<svg width="32" height="32" viewBox="0 0 32 32" fill="none" xmlns="http://www.w3.org/2000/svg"><g clip-path="url(#clip0_19838_2697)"><path d="M16.0001 17.6955C19.7876 17.6955 22.858 14.8613 22.858 11.3651C22.858 7.8689 19.7876 5.03467 16.0001 5.03467C12.2125 5.03467 9.14209 7.8689 9.14209 11.3651C9.14209 14.8613 12.2125 17.6955 16.0001 17.6955Z" fill="#A4C639" class="stroke-bg-sec-0-90" stroke-width="1.08522"></path><path d="M21.2001 9.78247H10.8001C9.88439 9.78247 9.14209 10.5248 9.14209 11.4404V21.8404C9.14209 22.7561 9.88439 23.4984 10.8001 23.4984H21.2001C22.1157 23.4984 22.858 22.7561 22.858 21.8404V11.4404C22.858 10.5248 22.1157 9.78247 21.2001 9.78247Z" fill="#A4C639" class="stroke-bg-sec-0-90" stroke-width="1.08522"></path><path d="M11.3157 4.02157C11.1845 3.78495 11.27 3.48681 11.5066 3.35565C11.7432 3.22449 12.0414 3.30998 12.1725 3.5466L14.8397 8.35828C14.9709 8.5949 14.8854 8.89304 14.6487 9.0242C14.4121 9.15536 14.114 9.06987 13.9828 8.83325L11.3157 4.02157Z" fill="#A4C639" class="stroke-bg-sec-0-90" stroke-width="0.542609"></path><path d="M23.1595 13.1739C23.1595 12.175 23.9692 11.3652 24.9682 11.3652C25.9671 11.3652 26.7769 12.175 26.7769 13.1739V19.5797C26.7769 20.5786 25.9671 21.3884 24.9682 21.3884C23.9692 21.3884 23.1595 20.5786 23.1595 19.5797V13.1739Z" fill="#A4C639" class="stroke-bg-sec-0-90" stroke-width="0.542609"></path><path d="M16.7537 20.484C16.7537 19.4851 17.5635 18.6753 18.5624 18.6753C19.5613 18.6753 20.3711 19.4851 20.3711 20.484V26.8898C20.3711 27.8887 19.5613 28.6985 18.5624 28.6985C17.5635 28.6985 16.7537 27.8887 16.7537 26.8898V20.484Z" fill="#A4C639" class="stroke-bg-sec-0-90" stroke-width="0.542609"></path><path d="M20.6843 4.02157C20.8155 3.78495 20.73 3.48681 20.4934 3.35565C20.2568 3.22449 19.9586 3.30998 19.8275 3.5466L17.1603 8.35828C17.0291 8.5949 17.1146 8.89304 17.3513 9.0242C17.5879 9.15536 17.886 9.06987 18.0172 8.83325L20.6843 4.02157Z" fill="#A4C639" class="stroke-bg-sec-0-90" stroke-width="0.542609"></path><path d="M8.84054 13.1739C8.84054 12.175 8.03076 11.3652 7.03184 11.3652C6.03293 11.3652 5.22314 12.175 5.22314 13.1739V19.5797C5.22314 20.5786 6.03293 21.3884 7.03184 21.3884C8.03076 21.3884 8.84054 20.5786 8.84054 19.5797V13.1739Z" fill="#A4C639" class="stroke-bg-sec-0-90" stroke-width="0.542609"></path><path d="M15.2463 20.484C15.2463 19.4851 14.4365 18.6753 13.4376 18.6753C12.4387 18.6753 11.6289 19.4851 11.6289 20.484V26.8898C11.6289 27.8887 12.4387 28.6985 13.4376 28.6985C14.4365 28.6985 15.2463 27.8887 15.2463 26.8898V20.484Z" fill="#A4C639" class="stroke-bg-sec-0-90" stroke-width="0.542609"></path><path d="M16.0001 17.6955C19.7876 17.6955 22.858 14.8613 22.858 11.3651C22.858 7.8689 19.7876 5.03467 16.0001 5.03467C12.2125 5.03467 9.14209 7.8689 9.14209 11.3651C9.14209 14.8613 12.2125 17.6955 16.0001 17.6955Z" fill="#A4C639"></path><path d="M21.2001 9.78247H10.8001C9.88439 9.78247 9.14209 10.5248 9.14209 11.4404V21.8404C9.14209 22.7561 9.88439 23.4984 10.8001 23.4984H21.2001C22.1157 23.4984 22.858 22.7561 22.858 21.8404V11.4404C22.858 10.5248 22.1157 9.78247 21.2001 9.78247Z" fill="#A4C639"></path><path d="M8.84082 11.6289H23.1597H8.84082Z" class="fill-bg-sec-0-90"></path><path d="M8.84082 11.6289H23.1597" class="stroke-bg-sec-0-90" stroke-width="0.542609"></path><path d="M12.8351 8.57665C13.0016 8.57665 13.1366 8.44169 13.1366 8.2752C13.1366 8.10872 13.0016 7.97375 12.8351 7.97375C12.6687 7.97375 12.5337 8.10872 12.5337 8.2752C12.5337 8.44169 12.6687 8.57665 12.8351 8.57665Z" class="fill-bg-sec-0-90 stroke-bg-sec-0-90" stroke-width="0.542609"></path><path d="M19.1652 8.57665C19.3317 8.57665 19.4667 8.44169 19.4667 8.2752C19.4667 8.10872 19.3317 7.97375 19.1652 7.97375C18.9987 7.97375 18.8638 8.10872 18.8638 8.2752C18.8638 8.44169 18.9987 8.57665 19.1652 8.57665Z" class="fill-bg-sec-0-90 stroke-bg-sec-0-90" stroke-width="0.542609"></path></g><defs><clipPath id="clip0_19838_2697"><rect width="22.1565" height="26" fill="white" transform="translate(4.92188 3)"></rect></clipPath></defs></svg>