<svg width="32" height="32" viewBox="0 0 32 32" fill="none" xmlns="http://www.w3.org/2000/svg" class="text-icn-txt-sec"><path d="M24.7607 11.1677C24.6217 11.2755 22.1683 12.658 22.1683 15.7319C22.1683 19.2875 25.2902 20.5454 25.3836 20.5765C25.3693 20.6532 24.8877 22.2992 23.7376 23.9763C22.7122 25.4522 21.6412 26.9257 20.012 26.9257C18.3827 26.9257 17.9635 25.9793 16.0827 25.9793C14.2498 25.9793 13.5981 26.9568 12.1078 26.9568C10.6176 26.9568 9.57772 25.5912 8.38216 23.914C6.99731 21.9446 5.87842 18.885 5.87842 15.9811C5.87842 11.3234 8.90687 8.85324 11.8874 8.85324C13.4711 8.85324 14.7913 9.89307 15.7856 9.89307C16.732 9.89307 18.2078 8.79095 20.0096 8.79095C20.6924 8.79095 23.1458 8.85324 24.7607 11.1677ZM19.1542 6.8191C19.8994 5.93501 20.4265 4.70829 20.4265 3.48158C20.4265 3.31147 20.4121 3.13896 20.3809 3C19.1686 3.04552 17.7263 3.80743 16.8565 4.81611C16.1737 5.59239 15.5364 6.8191 15.5364 8.06259C15.5364 8.24947 15.5675 8.43635 15.5819 8.49625C15.6586 8.51063 15.7832 8.5274 15.9078 8.5274C16.9955 8.5274 18.3636 7.79904 19.1542 6.8191Z" fill="currentColor"></path></svg>