<svg width="22" height="27" fill="none" xmlns="http://www.w3.org/2000/svg"><path d="M14.87 4.854c.807-.98 1.377-2.319 1.377-3.67 0-.186-.013-.372-.04-.517-1.325.053-2.915.874-3.856 1.987-.755.848-1.444 2.2-1.444 3.551 0 .212.04.411.053.477.08.014.212.04.358.04 1.18 0 2.663-.795 3.551-1.868zM15.796 7c-1.975 0-3.591 1.206-4.625 1.206-1.1 0-2.53-1.126-4.253-1.126C3.646 7.08.333 9.783.333 14.87c0 3.18 1.22 6.533 2.743 8.693 1.299 1.828 2.438 3.326 4.081 3.326 1.617 0 2.332-1.074 4.347-1.074 2.04 0 2.504 1.047 4.293 1.047 1.775 0 2.954-1.63 4.08-3.233 1.246-1.842 1.776-3.63 1.79-3.724-.106-.026-3.498-1.417-3.498-5.3 0-3.365 2.663-4.876 2.822-4.995C19.229 7.08 16.539 7 15.797 7z" fill="#14202E"></path></svg>