<svg width="32" height="32" viewBox="0 0 32 32" fill="none" xmlns="http://www.w3.org/2000/svg"><g clip-path="url(#clip0_19838_2718)"><path d="M25.9591 10.2496C24.9496 8.5015 23.4977 7.04986 21.7493 6.0406C20.0009 5.03133 18.0177 4.5 15.9989 4.5C13.9801 4.5 11.9968 5.03133 10.2484 6.0406C8.50004 7.04986 7.04815 8.5015 6.03865 10.2496L6.72873 22.6699L25.9591 10.2496Z" fill="url(#paint0_linear_19838_2718)"></path><path d="M11.021 18.8748L6.0409 10.2496C5.03145 11.9978 4.50001 13.981 4.5 15.9997C4.49999 18.0184 5.0314 20.0015 6.04082 21.7497C7.05025 23.498 8.50212 24.9498 10.2505 25.9591C11.9989 26.9685 13.9822 27.4999 16.0011 27.5L27.2725 15.9997L11.021 18.8748Z" fill="url(#paint1_linear_19838_2718)"></path><path d="M20.9813 18.8748L16.0011 27.5C18.0198 27.4995 20.0029 26.9678 21.751 25.9583C23.4991 24.9487 24.9506 23.4969 25.9598 21.7487C26.9689 20.0006 27.5001 18.0176 27.5 15.9991C27.4999 13.9806 26.9684 11.9977 25.9591 10.2496L16.0012 10.2496L20.9813 18.8748Z" fill="url(#paint2_linear_19838_2718)"></path><path d="M16.0012 21.7499C16.7564 21.7499 17.5042 21.6011 18.2019 21.3122C18.8996 21.0232 19.5335 20.5996 20.0675 20.0657C20.6015 19.5317 21.0251 18.8979 21.3141 18.2002C21.6031 17.5026 21.7519 16.7549 21.7519 15.9997C21.7519 15.2446 21.6031 14.4969 21.3141 13.7993C21.0251 13.1016 20.6015 12.4677 20.0675 11.9338C19.5335 11.3998 18.8996 10.9763 18.2019 10.6873C17.5042 10.3983 16.7564 10.2496 16.0012 10.2496C14.476 10.2496 13.0133 10.8554 11.9348 11.9338C10.8563 13.0121 10.2505 14.4747 10.2505 15.9997C10.2505 17.5248 10.8563 18.9873 11.9348 20.0657C13.0133 21.1441 14.476 21.7499 16.0012 21.7499Z" fill="white"></path><path d="M16.0012 20.5538C16.5993 20.5538 17.1916 20.436 17.7442 20.2072C18.2968 19.9783 18.7989 19.6428 19.2218 19.22C19.6447 18.7971 19.9802 18.295 20.2091 17.7425C20.438 17.19 20.5558 16.5978 20.5558 15.9997C20.5558 15.4017 20.438 14.8095 20.2091 14.2569C19.9802 13.7044 19.6447 13.2024 19.2218 12.7795C18.7989 12.3566 18.2968 12.0211 17.7442 11.7923C17.1916 11.5634 16.5993 11.4456 16.0012 11.4456C14.7933 11.4456 13.6348 11.9254 12.7807 12.7795C11.9265 13.6335 11.4467 14.7919 11.4467 15.9997C11.4467 17.2075 11.9265 18.3659 12.7807 19.22C13.6348 20.074 14.7933 20.5538 16.0012 20.5538Z" fill="#1A73E8"></path></g><defs><linearGradient id="paint0_linear_19838_2718" x1="4.50266" y1="13.5977" x2="27.5" y2="13.5977" gradientUnits="userSpaceOnUse"><stop stop-color="#D93025"></stop><stop offset="1" stop-color="#EA4335"></stop></linearGradient><linearGradient id="paint1_linear_19838_2718" x1="17.3729" y1="26.5401" x2="2.58891" y2="7.14036" gradientUnits="userSpaceOnUse"><stop stop-color="#1E8E3E"></stop><stop offset="1" stop-color="#34A853"></stop></linearGradient><linearGradient id="paint2_linear_19838_2718" x1="1.14124" y1="27.5" x2="11.424" y2="0.824048" gradientUnits="userSpaceOnUse"><stop stop-color="#FCC934"></stop><stop offset="1" stop-color="#FBBC04"></stop></linearGradient><clipPath id="clip0_19838_2718"><rect width="24" height="24" fill="white" transform="translate(4 4)"></rect></clipPath></defs></svg>