<svg xmlns="http://www.w3.org/2000/svg" width="21" height="20" viewBox="0 0 21 20" fill="none"><g clip-path="url(#clip0_150_1091)"><path fill-rule="evenodd" clip-rule="evenodd" d="M19.1364 2.61892C19.4879 2.26744 19.4879 1.6976 19.1364 1.34612C18.7849 0.994652 18.2151 0.994652 17.8636 1.34612L15.4269 3.78286C13.9728 2.95793 12.2916 2.48691 10.5005 2.48691C5.84186 2.48691 1.92744 5.67305 0.817383 9.98511C1.34383 12.0301 2.501 13.8218 4.06916 15.1406L1.8636 17.3461C1.51213 17.6976 1.51213 18.2674 1.8636 18.6189C2.21508 18.9704 2.78492 18.9704 3.1364 18.6189L5.57019 16.1851C7.02512 17.0114 8.70768 17.4832 10.5004 17.4832C15.159 17.4832 19.0735 14.2971 20.1835 9.98506C19.6567 7.93867 18.4983 6.14586 16.9285 4.82685L19.1364 2.61892ZM14.0948 5.1149C13.0092 4.58453 11.7893 4.28691 10.5005 4.28691C6.84639 4.28691 3.74688 6.67905 2.68993 9.9851C3.18248 11.5257 4.11861 12.8679 5.34771 13.862L14.0948 5.1149ZM6.90203 14.8533L15.6499 6.10545C16.8806 7.09983 17.818 8.44303 18.311 9.98506C17.254 13.2911 14.1545 15.6832 10.5004 15.6832C9.20995 15.6832 7.98864 15.3849 6.90203 14.8533Z" fill="#9899A6"></path></g><defs><clipPath id="clip0_150_1091"><rect width="20" height="20" fill="white" transform="translate(0.5)"></rect></clipPath></defs></svg>