<svg width="32" height="32" viewBox="0 0 32 32" fill="none" xmlns="http://www.w3.org/2000/svg"><g clip-path="url(#clip0_19838_2689)"><path d="M24.8601 21.371C24.565 21.5243 24.2608 21.6592 23.9491 21.7749C22.9622 22.1422 21.9171 22.3285 20.864 22.3249C16.7991 22.3249 13.2585 19.5319 13.2585 15.9397C13.2638 15.4587 13.3971 14.9878 13.6449 14.5754C13.8926 14.1631 14.2457 13.8242 14.6679 13.5936C10.9897 13.7483 10.0444 17.5811 10.0444 19.8241C10.0444 26.1835 15.8968 26.8194 17.1601 26.8194C17.839 26.8194 18.8616 26.6218 19.4804 26.4241L19.5921 26.3897C21.96 25.5714 23.9786 23.971 25.3155 21.8522C25.3544 21.7878 25.3711 21.7125 25.363 21.6377C25.3549 21.563 25.3226 21.4929 25.2709 21.4383C25.2192 21.3837 25.151 21.3475 25.0768 21.3354C25.0026 21.3232 24.9265 21.3357 24.8601 21.371Z" fill="url(#paint0_linear_19838_2689)"></path><path opacity="0.35" d="M24.8601 21.371C24.565 21.5243 24.2608 21.6592 23.9491 21.7749C22.9622 22.1422 21.9171 22.3285 20.864 22.3249C16.7991 22.3249 13.2585 19.5319 13.2585 15.9397C13.2638 15.4587 13.3971 14.9878 13.6449 14.5754C13.8926 14.1631 14.2457 13.8242 14.6679 13.5936C10.9897 13.7483 10.0444 17.5811 10.0444 19.8241C10.0444 26.1835 15.8968 26.8194 17.1601 26.8194C17.839 26.8194 18.8616 26.6218 19.4804 26.4241L19.5921 26.3897C21.96 25.5714 23.9786 23.971 25.3155 21.8522C25.3544 21.7878 25.3711 21.7125 25.363 21.6377C25.3549 21.563 25.3226 21.4929 25.2709 21.4383C25.2192 21.3837 25.151 21.3475 25.0768 21.3354C25.0026 21.3232 24.9265 21.3357 24.8601 21.371Z" fill="url(#paint1_radial_19838_2689)"></path><path d="M14.0838 25.7368C13.3188 25.2617 12.6557 24.6395 12.133 23.9063C11.536 23.0892 11.1251 22.1514 10.929 21.1586C10.733 20.1658 10.7566 19.1422 10.9982 18.1595C11.2398 17.1768 11.6935 16.2589 12.3274 15.4702C12.9614 14.6814 13.7604 14.041 14.6681 13.5938C14.9431 13.4649 15.3986 13.2415 16.0088 13.2501C16.4381 13.2534 16.8609 13.356 17.244 13.5498C17.6271 13.7436 17.9603 14.0234 18.2174 14.3673C18.5631 14.8323 18.7527 15.3949 18.7588 15.9743C18.7588 15.9571 20.8642 9.13367 11.8838 9.13367C8.1111 9.13367 5.00876 12.7087 5.00876 15.854C4.99375 17.5155 5.34896 19.1594 6.0486 20.6665C7.19438 23.1063 9.19609 25.0404 11.6738 26.1018C14.1514 27.1632 16.9326 27.278 19.4892 26.4243C18.5935 26.7072 17.647 26.7922 16.7153 26.6735C15.7835 26.5548 14.8885 26.2352 14.0924 25.7368H14.0838Z" fill="url(#paint2_linear_19838_2689)"></path><path opacity="0.41" d="M14.0838 25.7368C13.3188 25.2617 12.6557 24.6395 12.133 23.9063C11.536 23.0892 11.1251 22.1514 10.929 21.1586C10.733 20.1658 10.7566 19.1422 10.9982 18.1595C11.2398 17.1768 11.6935 16.2589 12.3274 15.4702C12.9614 14.6814 13.7604 14.041 14.6681 13.5938C14.9431 13.4649 15.3986 13.2415 16.0088 13.2501C16.4381 13.2534 16.8609 13.356 17.244 13.5498C17.6271 13.7436 17.9603 14.0234 18.2174 14.3673C18.5631 14.8323 18.7527 15.3949 18.7588 15.9743C18.7588 15.9571 20.8642 9.13367 11.8838 9.13367C8.1111 9.13367 5.00876 12.7087 5.00876 15.854C4.99375 17.5155 5.34896 19.1594 6.0486 20.6665C7.19438 23.1063 9.19609 25.0404 11.6738 26.1018C14.1514 27.1632 16.9326 27.278 19.4892 26.4243C18.5935 26.7072 17.647 26.7922 16.7153 26.6735C15.7835 26.5548 14.8885 26.2352 14.0924 25.7368H14.0838Z" fill="url(#paint3_radial_19838_2689)"></path><path d="M18.0969 17.7875C18.0195 17.8734 17.8047 18.0023 17.8047 18.2688C17.8047 18.4922 17.9508 18.7156 18.2172 18.8961C19.4461 19.7555 21.775 19.6352 21.7836 19.6352C22.6997 19.6346 23.5989 19.3882 24.3875 18.9219C25.1814 18.4575 25.8401 17.7937 26.2984 16.9963C26.7566 16.1989 26.9985 15.2955 27 14.3758C27.0258 12.4508 26.3125 11.1703 26.0289 10.6031C24.1984 7.04531 20.2711 5 16 5C13.1092 4.99971 10.3345 6.13738 8.27601 8.16694C6.2175 10.1965 5.04065 12.9548 5 15.8453C5.04297 12.7086 8.1625 10.1734 11.875 10.1734C12.1758 10.1734 13.8945 10.1992 15.4844 11.0328C16.6013 11.5878 17.5263 12.4649 18.1398 13.5508C18.6641 14.4617 18.7586 15.6219 18.7586 16.0859C18.7586 16.55 18.5266 17.2289 18.0883 17.7961L18.0969 17.7875Z" fill="url(#paint4_radial_19838_2689)"></path><path d="M18.0969 17.7875C18.0195 17.8734 17.8047 18.0023 17.8047 18.2688C17.8047 18.4922 17.9508 18.7156 18.2172 18.8961C19.4461 19.7555 21.775 19.6352 21.7836 19.6352C22.6997 19.6346 23.5989 19.3882 24.3875 18.9219C25.1814 18.4575 25.8401 17.7937 26.2984 16.9963C26.7566 16.1989 26.9985 15.2955 27 14.3758C27.0258 12.4508 26.3125 11.1703 26.0289 10.6031C24.1984 7.04531 20.2711 5 16 5C13.1092 4.99971 10.3345 6.13738 8.27601 8.16694C6.2175 10.1965 5.04065 12.9548 5 15.8453C5.04297 12.7086 8.1625 10.1734 11.875 10.1734C12.1758 10.1734 13.8945 10.1992 15.4844 11.0328C16.6013 11.5878 17.5263 12.4649 18.1398 13.5508C18.6641 14.4617 18.7586 15.6219 18.7586 16.0859C18.7586 16.55 18.5266 17.2289 18.0883 17.7961L18.0969 17.7875Z" fill="url(#paint5_radial_19838_2689)"></path></g><defs><linearGradient id="paint0_linear_19838_2689" x1="10.0444" y1="20.2108" x2="25.3757" y2="20.2108" gradientUnits="userSpaceOnUse"><stop stop-color="#0C59A4"></stop><stop offset="1" stop-color="#114A8B"></stop></linearGradient><radialGradient id="paint1_radial_19838_2689" cx="0" cy="0" r="1" gradientUnits="userSpaceOnUse" gradientTransform="translate(18.5093 20.3264) scale(8.19844 7.78852)"><stop offset="0.7" stop-opacity="0"></stop><stop offset="0.9" stop-opacity="0.5"></stop><stop offset="1"></stop></radialGradient><linearGradient id="paint2_linear_19838_2689" x1="18.1228" y1="13.5594" x2="8.55797" y2="23.9837" gradientUnits="userSpaceOnUse"><stop stop-color="#1B9DE2"></stop><stop offset="0.2" stop-color="#1595DF"></stop><stop offset="0.7" stop-color="#0680D7"></stop><stop offset="1" stop-color="#0078D4"></stop></linearGradient><radialGradient id="paint3_radial_19838_2689" cx="0" cy="0" r="1" gradientUnits="userSpaceOnUse" gradientTransform="translate(11.0635 22.0962) rotate(-81.3844) scale(12.3222 9.95513)"><stop offset="0.8" stop-opacity="0"></stop><stop offset="0.9" stop-opacity="0.5"></stop><stop offset="1"></stop></radialGradient><radialGradient id="paint4_radial_19838_2689" cx="0" cy="0" r="1" gradientUnits="userSpaceOnUse" gradientTransform="translate(7.22492 9.06622) rotate(92.2906) scale(17.4077 37.0747)"><stop stop-color="#35C1F1"></stop><stop offset="0.1" stop-color="#34C1ED"></stop><stop offset="0.2" stop-color="#2FC2DF"></stop><stop offset="0.3" stop-color="#2BC3D2"></stop><stop offset="0.7" stop-color="#36C752"></stop></radialGradient><radialGradient id="paint5_radial_19838_2689" cx="0" cy="0" r="1" gradientUnits="userSpaceOnUse" gradientTransform="translate(25.6302 11.643) rotate(73.7398) scale(8.36172 6.79975)"><stop stop-color="#66EB6E"></stop><stop offset="1" stop-color="#66EB6E" stop-opacity="0"></stop></radialGradient><clipPath id="clip0_19838_2689"><rect width="22" height="22" fill="white" transform="translate(5 5)"></rect></clipPath></defs></svg>