<svg width="24" height="24" fill="none" xmlns="http://www.w3.org/2000/svg"><g clip-path="url(#Facebook_svg__clip0)"><path d="M12 24c6.627 0 12-5.372 12-12 0-6.627-5.373-12-12-12S0 5.373 0 12c0 6.628 5.373 12 12 12z" fill="#0317CE"></path><path d="M15.902 3.683h-2.658c-1.578 0-3.332.664-3.332 2.95.007.797 0 1.56 0 2.42H8.087v2.903h1.881v8.36h3.457v-8.415h2.282l.207-2.857h-2.548s.005-1.271 0-1.64c0-.904.94-.852.997-.852h1.54V3.683h-.001z" fill="#fff"></path></g><defs><clipPath id="Facebook_svg__clip0"><path fill="#fff" d="M0 0h24v24H0z"></path></clipPath></defs></svg>