<svg width="23" height="24" fill="none" xmlns="http://www.w3.org/2000/svg"><g clip-path="url(#Google_svg__clip0)"><path d="M22.655 12.21c0-.92-.075-1.591-.236-2.287H11.915v4.152h6.165c-.124 1.032-.795 2.585-2.287 3.63l-.02.139 3.32 2.572.23.023c2.114-1.951 3.332-4.823 3.332-8.229z" fill="#4285F4"></path><path d="M11.915 23.15c3.02 0 5.556-.995 7.409-2.71l-3.53-2.735c-.946.659-2.214 1.118-3.88 1.118-2.958 0-5.47-1.951-6.364-4.649l-.131.011-3.454 2.673-.045.126c1.84 3.654 5.619 6.166 9.995 6.166z" fill="#34A853"></path><path d="M5.55 14.174a6.888 6.888 0 01-.373-2.213c0-.77.137-1.516.36-2.212L5.531 9.6 2.034 6.885l-.114.054a11.198 11.198 0 00-1.194 5.022c0 1.803.436 3.506 1.194 5.023l3.63-2.81z" fill="#FBBC05"></path><path d="M11.915 5.1c2.1 0 3.518.907 4.326 1.665l3.157-3.083C17.458 1.88 14.935.773 11.915.773 7.538.773 3.76 3.284 1.92 6.94l3.617 2.81c.908-2.698 3.419-4.65 6.378-4.65z" fill="#EB4335"></path></g><defs><clipPath id="Google_svg__clip0"><path fill="#fff" transform="translate(.725 .773)" d="M0 0h21.941v22.453H0z"></path></clipPath></defs></svg>