<svg width="20" height="20" viewBox="0 0 20 20" fill="none" xmlns="http://www.w3.org/2000/svg" class="w-5 h-5 text-icn-txt-sec"><path fill-rule="evenodd" clip-rule="evenodd" d="M15.1203 2.5263C15.1203 2.52631 15.1204 2.52632 15.1204 2.52633L15.1275 2.53044C15.4329 2.70717 15.6069 3.0461 15.5725 3.39731C15.538 3.74852 15.3015 4.04718 14.9675 4.16119C13.6694 4.60432 12.5015 5.54838 11.7507 6.93545C10.1359 9.9189 11.115 13.7087 13.8569 15.3973C14.2189 15.6202 14.5923 15.7951 14.971 15.9247C15.3049 16.0389 15.5412 16.3378 15.5754 16.6889C15.6096 17.0401 15.4354 17.3789 15.1299 17.5555C12.5341 19.0553 9.22733 19.1681 6.44099 17.5594C2.28971 15.1627 0.867375 9.85448 3.26412 5.7032C5.66085 1.55193 10.9691 0.129591 15.1203 2.5263ZM12.5466 3.39224C9.61557 2.61208 6.41197 3.85096 4.82296 6.6032C2.92328 9.89355 4.05064 14.1009 7.34099 16.0006C8.98169 16.9479 10.8508 17.143 12.5491 16.6912C9.2369 14.3803 8.19304 9.72693 10.1677 6.07863C10.7707 4.96455 11.5924 4.05892 12.5466 3.39224Z" fill="currentColor"></path></svg>