<svg xmlns="http://www.w3.org/2000/svg" width="21" height="20" viewBox="0 0 21 20" fill="none"><g clip-path="url(#clip0_150_1413)"><path fill-rule="evenodd" clip-rule="evenodd" d="M10.5004 15.6832C6.84639 15.6832 3.7469 13.291 2.68993 9.985C3.74688 6.67895 6.84639 4.28682 10.5005 4.28682C14.1545 4.28682 17.254 6.67893 18.311 9.98496C17.254 13.291 14.1545 15.6832 10.5004 15.6832ZM10.5005 2.48682C15.159 2.48682 19.0734 5.67293 20.1835 9.98496C19.0735 14.297 15.159 17.4832 10.5004 17.4832C5.84187 17.4832 1.92746 14.297 0.817383 9.98501C1.92744 5.67295 5.84186 2.48682 10.5005 2.48682ZM12.8667 9.98527C12.8667 11.2923 11.8071 12.3519 10.5 12.3519C9.19297 12.3519 8.13337 11.2923 8.13337 9.98527C8.13337 8.6782 9.19297 7.6186 10.5 7.6186C11.8071 7.6186 12.8667 8.6782 12.8667 9.98527ZM14.6667 9.98527C14.6667 12.2865 12.8012 14.1519 10.5 14.1519C8.19885 14.1519 6.33337 12.2865 6.33337 9.98527C6.33337 7.68408 8.19885 5.8186 10.5 5.8186C12.8012 5.8186 14.6667 7.68408 14.6667 9.98527Z" fill="#9899A6"></path></g><defs><clipPath id="clip0_150_1413"><rect width="20" height="20" fill="white" transform="translate(0.5)"></rect></clipPath></defs></svg>