<svg width="32" height="32" viewBox="0 0 32 32" fill="none" xmlns="http://www.w3.org/2000/svg"><g><path d="M6.22188 14.8889C5.52752 14.8889 4.93308 14.6416 4.43854 14.1471C3.94403 13.6526 3.69678 13.0564 3.69678 12.3585V6.22221C3.69678 5.52785 3.94403 4.93253 4.43854 4.43624C4.93308 3.93993 5.52752 3.69177 6.22188 3.69177H12.3635C13.0578 3.69177 13.6523 3.93993 14.1468 4.43624C14.6413 4.93253 14.8886 5.52785 14.8886 6.22221V12.3585C14.8886 13.0564 14.6413 13.6526 14.1468 14.1471C13.6523 14.6416 13.0578 14.8889 12.3635 14.8889H6.22188ZM6.22188 12.3585H12.3635V6.22221H6.22188V12.3585ZM6.22188 28.3029C5.52752 28.3029 4.93308 28.0557 4.43854 27.5611C3.94403 27.0666 3.69678 26.4722 3.69678 25.7778V19.6362C3.69678 18.9419 3.94403 18.3474 4.43854 17.8529C4.93308 17.3584 5.52752 17.1111 6.22188 17.1111H12.3635C13.0578 17.1111 13.6523 17.3584 14.1468 17.8529C14.6413 18.3474 14.8886 18.9419 14.8886 19.6362V25.7778C14.8886 26.4722 14.6413 27.0666 14.1468 27.5611C13.6523 28.0557 13.0578 28.3029 12.3635 28.3029H6.22188ZM6.22188 25.7778H12.3635V19.6362H6.22188V25.7778ZM19.6412 14.8889C18.9433 14.8889 18.3471 14.6416 17.8526 14.1471C17.358 13.6526 17.1108 13.0564 17.1108 12.3585V6.22221C17.1108 5.52785 17.358 4.93253 17.8526 4.43624C18.3471 3.93993 18.9433 3.69177 19.6412 3.69177H25.7775C26.4718 3.69177 27.0672 3.93993 27.5634 4.43624C28.0598 4.93253 28.3079 5.52785 28.3079 6.22221V12.3585C28.3079 13.0564 28.0598 13.6526 27.5634 14.1471C27.0672 14.6416 26.4718 14.8889 25.7775 14.8889H19.6412ZM19.6412 12.3585H25.7775V6.22221H19.6412V12.3585ZM26.155 28.3029C25.982 28.3029 25.8329 28.2403 25.7076 28.115C25.5824 27.9897 25.5197 27.8406 25.5197 27.6676V26.1553C25.5197 25.9824 25.5824 25.8319 25.7076 25.704C25.8329 25.5761 25.982 25.5121 26.155 25.5121H27.6726C27.842 25.5121 27.9903 25.5761 28.1173 25.704C28.2444 25.8319 28.3079 25.9824 28.3079 26.1553V27.6676C28.3079 27.8406 28.2444 27.9897 28.1173 28.115C27.9903 28.2403 27.842 28.3029 27.6726 28.3029H26.155ZM17.746 19.9162C17.5731 19.9162 17.424 19.8535 17.2987 19.7283C17.1734 19.603 17.1108 19.4539 17.1108 19.2809V17.7464C17.1108 17.5734 17.1734 17.4243 17.2987 17.299C17.424 17.1738 17.5731 17.1111 17.746 17.1111H19.2584C19.4313 17.1111 19.5804 17.1738 19.7057 17.299C19.831 17.4243 19.8936 17.5734 19.8936 17.7464V19.2809C19.8936 19.4539 19.831 19.603 19.7057 19.7283C19.5804 19.8535 19.4313 19.9162 19.2584 19.9162H17.746ZM20.5369 22.707C20.3639 22.707 20.2148 22.6444 20.0895 22.5191C19.9643 22.3938 19.9016 22.2447 19.9016 22.0717V20.5594C19.9016 20.3865 19.9643 20.236 20.0895 20.1081C20.2148 19.9802 20.3639 19.9162 20.5369 19.9162H22.0714C22.2444 19.9162 22.3935 19.9802 22.5188 20.1081C22.644 20.236 22.7067 20.3865 22.7067 20.5594V22.0717C22.7067 22.2447 22.644 22.3938 22.5188 22.5191C22.3935 22.6444 22.2444 22.707 22.0714 22.707H20.5369ZM17.746 25.5121C17.5731 25.5121 17.424 25.4494 17.2987 25.3242C17.1734 25.1989 17.1108 25.0498 17.1108 24.8768V23.3423C17.1108 23.1693 17.1734 23.0202 17.2987 22.8949C17.424 22.7697 17.5731 22.707 17.746 22.707H19.2584C19.4313 22.707 19.5804 22.7697 19.7057 22.8949C19.831 23.0202 19.8936 23.1693 19.8936 23.3423V24.8768C19.8936 25.0498 19.831 25.1989 19.7057 25.3242C19.5804 25.4494 19.4313 25.5121 19.2584 25.5121H17.746ZM20.5369 28.3029C20.3639 28.3029 20.2148 28.2403 20.0895 28.115C19.9643 27.9897 19.9016 27.8406 19.9016 27.6676V26.1553C19.9016 25.9824 19.9643 25.8319 20.0895 25.704C20.2148 25.5761 20.3639 25.5121 20.5369 25.5121H22.0714C22.2444 25.5121 22.3935 25.5761 22.5188 25.704C22.644 25.8319 22.7067 25.9824 22.7067 26.1553V27.6676C22.7067 27.8406 22.644 27.9897 22.5188 28.115C22.3935 28.2403 22.2444 28.3029 22.0714 28.3029H20.5369ZM23.3419 25.5121C23.169 25.5121 23.0199 25.4494 22.8946 25.3242C22.7693 25.1989 22.7067 25.0498 22.7067 24.8768V23.3423C22.7067 23.1693 22.7693 23.0202 22.8946 22.8949C23.0199 22.7697 23.169 22.707 23.3419 22.707H24.8818C25.0512 22.707 25.1994 22.7697 25.3265 22.8949C25.4535 23.0202 25.5171 23.1693 25.5171 23.3423V24.8768C25.5171 25.0498 25.4535 25.1989 25.3265 25.3242C25.1994 25.4494 25.0512 25.5121 24.8818 25.5121H23.3419ZM23.3419 19.9162C23.169 19.9162 23.0199 19.8535 22.8946 19.7283C22.7693 19.603 22.7067 19.4539 22.7067 19.2809V17.7464C22.7067 17.5734 22.7693 17.4243 22.8946 17.299C23.0199 17.1738 23.169 17.1111 23.3419 17.1111H24.8818C25.0512 17.1111 25.1994 17.1738 25.3265 17.299C25.4535 17.4243 25.5171 17.5734 25.5171 17.7464V19.2809C25.5171 19.4539 25.4535 19.603 25.3265 19.7283C25.1994 19.8535 25.0512 19.9162 24.8818 19.9162H23.3419ZM26.155 22.707C25.982 22.707 25.8329 22.6444 25.7076 22.5191C25.5824 22.3938 25.5197 22.2447 25.5197 22.0717V20.5594C25.5197 20.3865 25.5824 20.236 25.7076 20.1081C25.8329 19.9802 25.982 19.9162 26.155 19.9162H27.6726C27.842 19.9162 27.9903 19.9802 28.1173 20.1081C28.2444 20.236 28.3079 20.3865 28.3079 20.5594V22.0717C28.3079 22.2447 28.2444 22.3938 28.1173 22.5191C27.9903 22.6444 27.842 22.707 27.6726 22.707H26.155Z" fill="#6B78FC"></path></g></svg>