<svg width="20" height="20" viewBox="0 0 20 20" fill="none" xmlns="http://www.w3.org/2000/svg" class="w-5 h-5 text-icn-txt-prim"><g clip-path="url(#clip0_20335_7986)"><path d="M10.9 1.0001C10.9 0.503041 10.4971 0.100098 9.99999 0.100098C9.50294 0.100098 9.09999 0.503041 9.09999 1.0001V3.20427C9.3789 3.16944 9.66305 3.15149 9.9514 3.15149C10.2733 3.15149 10.59 3.17386 10.9 3.21713V1.0001Z" fill="currentColor"></path><path fill-rule="evenodd" clip-rule="evenodd" d="M10.8991 5.04118C10.8991 5.04116 10.8991 5.0412 10.8991 5.04118C11.6165 5.17881 12.2793 5.4698 12.8523 5.87863C12.8523 5.87864 12.8523 5.87862 12.8523 5.87863C13.3422 6.22815 13.7663 6.6638 14.1026 7.16352C14.1026 7.16352 14.1026 7.16351 14.1026 7.16352C14.4893 7.73819 14.7598 8.39758 14.8805 9.10796C14.8805 9.10796 14.8805 9.10796 14.8805 9.10796C14.9271 9.38218 14.9514 9.664 14.9514 9.95149C14.9514 10.2722 14.9212 10.5859 14.8635 10.8898C14.797 11.2401 14.6939 11.5774 14.5585 11.8977C13.7994 13.6923 12.0225 14.9515 9.9514 14.9515C7.18997 14.9515 4.9514 12.7129 4.9514 9.95149C4.9514 9.66136 4.97611 9.377 5.02354 9.1004C5.07047 8.82673 5.13965 8.56066 5.22914 8.30412C5.37829 7.87654 5.58387 7.47543 5.83696 7.1097C6.18091 6.61266 6.61259 6.18096 7.10962 5.83702C7.69478 5.4321 8.37054 5.14883 9.1003 5.02368C9.1003 5.02367 9.1003 5.0237 9.1003 5.02368C9.3769 4.97625 9.66126 4.95149 9.9514 4.95149C10.2754 4.95149 10.5922 4.98231 10.8991 5.04118ZM13.1514 9.95154C13.1514 11.7188 11.7187 13.1515 9.95139 13.1515C8.18407 13.1515 6.75139 11.7188 6.75139 9.95154C6.75139 8.18423 8.18407 6.75154 9.95139 6.75154C11.7187 6.75154 13.1514 8.18423 13.1514 9.95154Z" fill="currentColor"></path><path d="M5.82153 4.54881L4.27244 2.99971C3.92097 2.64824 3.35112 2.64824 2.99965 2.99971C2.64818 3.35118 2.64818 3.92103 2.99965 4.2725L4.54874 5.82159C4.91493 5.34327 5.34321 4.915 5.82153 4.54881Z" fill="currentColor"></path><path d="M3.20418 9.1001H1.00001C0.50295 9.1001 0.100006 9.50304 0.100006 10.0001C0.100006 10.4972 0.50295 10.9001 1.00001 10.9001H3.21704C3.17377 10.5901 3.1514 10.2734 3.1514 9.95149C3.1514 9.66315 3.16934 9.379 3.20418 9.1001Z" fill="currentColor"></path><path d="M4.59113 14.1362L2.99963 15.7277C2.64816 16.0791 2.64816 16.649 2.99963 17.0005C3.3511 17.3519 3.92095 17.3519 4.27242 17.0005L5.87683 15.3961C5.39466 15.0346 4.96208 14.6107 4.59113 14.1362Z" fill="currentColor"></path><path d="M9.09999 16.6987V19.0001C9.09999 19.4972 9.50294 19.9001 9.99999 19.9001C10.4971 19.9001 10.9 19.4972 10.9 19.0001V16.6859C10.59 16.7291 10.2733 16.7515 9.9514 16.7515C9.66305 16.7515 9.3789 16.7335 9.09999 16.6987Z" fill="currentColor"></path><path d="M14.0813 15.3542L15.7275 17.0005C16.079 17.3519 16.6489 17.3519 17.0003 17.0005C17.3518 16.649 17.3518 16.0791 17.0003 15.7277L15.3541 14.0814C14.9879 14.5597 14.5596 14.988 14.0813 15.3542Z" fill="currentColor"></path><path d="M16.6858 10.9001H19C19.4971 10.9001 19.9 10.4972 19.9 10.0001C19.9 9.50304 19.4971 9.1001 19 9.1001H16.6986C16.7335 9.379 16.7514 9.66315 16.7514 9.95149C16.7514 10.2734 16.729 10.5901 16.6858 10.9001Z" fill="currentColor"></path><path d="M15.396 5.8769L17.0004 4.2725C17.3518 3.92103 17.3518 3.35118 17.0004 2.99971C16.6489 2.64824 16.079 2.64824 15.7276 2.99971L14.1361 4.59121C14.6106 4.96215 15.0345 5.39473 15.396 5.8769Z" fill="currentColor"></path></g><defs><clipPath id="clip0_20335_7986"><rect width="20" height="20" fill="white"></rect></clipPath></defs></svg>