<svg width="16" height="16" viewBox="0 0 16 16" fill="none" xmlns="http://www.w3.org/2000/svg"><path fill-rule="evenodd" clip-rule="evenodd" d="M13.7974 3.02809L13.0617 2.29244C12.8676 2.09828 12.5531 2.09703 12.3574 2.28964L11.1014 3.52585L12.5398 4.9643L13.7933 3.73922C13.9924 3.54464 13.9942 3.22493 13.7974 3.02809ZM2.16539 12.3207L9.67592 4.9288L11.1094 6.36232L3.45523 13.8432C3.36181 13.9345 3.23637 13.9856 3.10575 13.9856L2.01611 13.9856V12.677C2.01611 12.5431 2.06989 12.4147 2.16539 12.3207ZM14.4759 0.87823C13.5051 -0.0925887 11.9331 -0.0988489 10.9545 0.864211L0.762477 10.8953C0.285002 11.3652 0.0161133 12.0071 0.0161133 12.677V15.1523C0.0161133 15.6125 0.38921 15.9856 0.849448 15.9856L3.10575 15.9856C3.75887 15.9856 4.38607 15.73 4.85316 15.2735L15.1912 5.16953C16.1867 4.19664 16.1958 2.5981 15.2116 1.61388L14.4759 0.87823Z" class="fill-icn-txt-tert"></path></svg>