<svg width="77" height="78" viewBox="0 0 77 78" fill="none" xmlns="http://www.w3.org/2000/svg"><g clip-path="url(#clip0_19828_1998)"><path d="M3.28023 47.2915C2.46844 50.5819 4.271 52.9252 5.88034 52.9252" stroke="#FFBC41" stroke-width="2.81539" stroke-linecap="round" stroke-linejoin="round"></path><circle cx="47.2024" cy="38.1043" r="26.2628" transform="rotate(11.2889 47.2024 38.1043)" fill="url(#paint0_linear_19828_1998)"></circle><mask id="mask0_19828_1998" maskUnits="userSpaceOnUse" x="20" y="11" width="54" height="54" style="mask-type: alpha;"><circle cx="47.2024" cy="38.1043" r="26.2628" transform="rotate(11.2889 47.2024 38.1043)" fill="url(#paint1_linear_19828_1998)"></circle></mask><g mask="url(#mask0_19828_1998)"><g filter="url(#filter0_f_19828_1998)" style="mix-blend-mode: hard-light;"><path d="M20.204 2.32721C8.85711 -10.2289 -25.3895 50.4557 4.10004 83.001C19.5071 97.7631 70.7577 109.366 77.8028 74.0728C79.9216 63.4588 53.4679 74.1684 31.1131 48.9669C12.0402 27.4652 31.551 14.8833 20.204 2.32721Z" fill="#EE30FF"></path></g><g filter="url(#filter1_f_19828_1998)"><path d="M74.4114 51.4949C76.2659 56.2767 68.5573 63.7257 57.1939 68.1327C45.8304 72.5397 35.1151 72.2359 33.2606 67.4541C31.4062 62.6723 44.8068 67.4725 56.1702 63.0655C67.5337 58.6585 72.5569 46.7131 74.4114 51.4949Z" fill="#FFC347"></path></g><g filter="url(#filter2_f_19828_1998)" style="mix-blend-mode: overlay;"><path d="M75.6168 7.6149C78.8972 16.0734 57.5991 6.34267 37.7052 14.058C17.8113 21.7733 6.85486 44.0131 3.57446 35.5546C0.294057 27.0961 13.762 13.9846 33.6559 6.26929C53.5498 -1.44605 72.3364 -0.843596 75.6168 7.6149Z" fill="#D6FF62"></path></g></g><circle cx="2.58353" cy="2.58353" r="2.58353" transform="matrix(1 0 0 -1 38.3799 25.0909)" fill="#1E1E1E"></circle><circle cx="2.58355" cy="2.58355" r="2.58355" transform="matrix(1 0 0 -1 48.875 25.0909)" fill="#1E1E1E"></circle><path d="M35.95 29.262C37.0063 30.4262 39.9725 32.3523 43.319 32.6002C48.8738 33.0117 52.6144 31.4283 55.6363 28.5973" stroke="#1E1E1E" stroke-width="2.81539" stroke-linecap="round" stroke-linejoin="round"></path><path d="M4.52344 45.8077C4.52344 43.9971 4.52344 43.0917 4.87582 42.4001C5.18578 41.7918 5.68037 41.2972 6.2887 40.9873C6.98028 40.6349 7.88561 40.6349 9.69628 40.6349H31.7417C33.5524 40.6349 34.4577 40.6349 35.1493 40.9873C35.7576 41.2972 36.2522 41.7918 36.5622 42.4001C36.9146 43.0917 36.9146 43.9971 36.9146 45.8077V61.3045C36.9146 63.1152 36.9146 64.0205 36.5622 64.7121C36.2522 65.3204 35.7576 65.815 35.1493 66.125C34.4577 66.4773 33.5524 66.4773 31.7417 66.4773H9.69628C7.88561 66.4773 6.98028 66.4773 6.2887 66.125C5.68037 65.815 5.18578 65.3204 4.87582 64.7121C4.52344 64.0205 4.52344 63.1152 4.52344 61.3045V45.8077Z" fill="url(#paint2_radial_19828_1998)"></path><path d="M20.6108 40.6351L20.5849 66.4776" stroke="#DF08FF" stroke-width="2.81539"></path><path d="M25.1125 32.3323C22.9493 34.5296 21.4315 38.8245 20.7703 41.6365C24.7055 41.639 28.645 39.5011 30.5353 36.5908C33.8745 31.4496 28.9761 28.4081 25.1125 32.3323Z" stroke="#E007FF" stroke-width="2.81539" stroke-linejoin="round"></path><path d="M15.8014 29.9367C18.424 32.6794 20.1697 38.0963 20.8978 41.6497C14.7529 41.9478 10.24 37.6324 8.89169 35.4508C4.90342 28.998 11.1174 25.0385 15.8014 29.9367Z" stroke="url(#paint3_linear_19828_1998)" stroke-width="2.81539" stroke-linejoin="round"></path><path d="M3.06934 48.6458C3.06934 47.0691 3.89417 45.7847 4.76459 44.9219" stroke="#FFBC41" stroke-width="2.81539" stroke-linecap="round" stroke-linejoin="round"></path></g><defs><filter id="filter0_f_19828_1998" x="-26.0599" y="-17.8286" width="122.453" height="133.62" filterUnits="userSpaceOnUse" color-interpolation-filters="sRGB"><feFlood flood-opacity="0" result="BackgroundImageFix"></feFlood><feBlend mode="normal" in="SourceGraphic" in2="BackgroundImageFix" result="shape"></feBlend><feGaussianBlur stdDeviation="9.23552" result="effect1_foregroundBlur_19828_1998"></feGaussianBlur></filter><filter id="filter1_f_19828_1998" x="27.7948" y="45.0922" width="52.1842" height="31.4494" filterUnits="userSpaceOnUse" color-interpolation-filters="sRGB"><feFlood flood-opacity="0" result="BackgroundImageFix"></feFlood><feBlend mode="normal" in="SourceGraphic" in2="BackgroundImageFix" result="shape"></feBlend><feGaussianBlur stdDeviation="2.64628" result="effect1_foregroundBlur_19828_1998"></feGaussianBlur></filter><filter id="filter2_f_19828_1998" x="-15.3885" y="-17.6161" width="109.813" height="73.5307" filterUnits="userSpaceOnUse" color-interpolation-filters="sRGB"><feFlood flood-opacity="0" result="BackgroundImageFix"></feFlood><feBlend mode="normal" in="SourceGraphic" in2="BackgroundImageFix" result="shape"></feBlend><feGaussianBlur stdDeviation="9.23552" result="effect1_foregroundBlur_19828_1998"></feGaussianBlur></filter><linearGradient id="paint0_linear_19828_1998" x1="47.2024" y1="11.8415" x2="70.1824" y2="62.8038" gradientUnits="userSpaceOnUse"><stop stop-color="#FFCE51"></stop><stop offset="1" stop-color="#FFAE35"></stop></linearGradient><linearGradient id="paint1_linear_19828_1998" x1="47.2024" y1="11.8415" x2="70.1824" y2="62.8038" gradientUnits="userSpaceOnUse"><stop stop-color="#FFCE51"></stop><stop offset="1" stop-color="#FFAE35"></stop></linearGradient><radialGradient id="paint2_radial_19828_1998" cx="0" cy="0" r="1" gradientUnits="userSpaceOnUse" gradientTransform="translate(40.17 73.4224) rotate(-146.456) scale(89.9726 140.004)"><stop stop-color="#E108FF"></stop><stop offset="0.467013" stop-color="#2137FC"></stop></radialGradient><linearGradient id="paint3_linear_19828_1998" x1="3.71707" y1="20.3925" x2="29.4205" y2="43.361" gradientUnits="userSpaceOnUse"><stop offset="0.385429" stop-color="#E007FF"></stop><stop offset="0.821415" stop-color="#DF08FF"></stop></linearGradient><clipPath id="clip0_19828_1998"><rect width="77" height="78" fill="white"></rect></clipPath></defs></svg>