<svg xmlns="http://www.w3.org/2000/svg" width="158" height="24" viewBox="0 0 158 24" fill="none">
<mask id="mask0_2980_51505" style="mask-type:luminance" maskUnits="userSpaceOnUse" x="0" y="0" width="24" height="24">
<path d="M12 24C18.6274 24 24 18.6274 24 12C24 5.37258 18.6274 0 12 0C5.37258 0 0 5.37258 0 12C0 18.6274 5.37258 24 12 24Z" fill="white"/>
</mask>
<g mask="url(#mask0_2980_51505)">
<path d="M1.90869 0V14.7273H7.28142L11.9996 6.54545H23.9996V0H1.90869Z" fill="#DB4437"/>
<path d="M1.90869 0V14.7273H7.28142L11.9996 6.54545H23.9996V0H1.90869Z" fill="url(#paint0_linear_2980_51505)"/>
<path d="M0 24H11.4273L16.7455 18.6818V14.7273H7.25455L0 2.25V24Z" fill="#0F9D58"/>
<path d="M0 24H11.4273L16.7455 18.6818V14.7273H7.25455L0 2.25V24Z" fill="url(#paint1_linear_2980_51505)"/>
<path d="M11.9996 6.5459L16.7177 14.7277L11.4541 24.0004H23.9996V6.5459H11.9996Z" fill="#FFCD40"/>
<path d="M11.9996 6.5459L16.7177 14.7277L11.4541 24.0004H23.9996V6.5459H11.9996Z" fill="url(#paint2_linear_2980_51505)"/>
<path d="M7.40415 14.6861L1.90869 5.50879L7.22687 14.7542L7.40415 14.6861Z" fill="#3E2723" fill-opacity="0.1"/>
<path d="M16.6085 14.9042L16.4995 14.8496L11.4131 23.986L16.6358 14.8496L16.6085 14.9042Z" fill="#263238" fill-opacity="0.1"/>
<path d="M12 6.5459V9.40953L22.6909 6.5459H12Z" fill="url(#paint3_radial_2980_51505)"/>
<path d="M1.90869 5.52246L9.70869 13.3225L7.28142 14.727L1.90869 5.52246Z" fill="url(#paint4_radial_2980_51505)"/>
<path d="M11.4268 24.0005L14.2904 13.3232L16.7177 14.7278L11.4268 24.0005Z" fill="url(#paint5_radial_2980_51505)"/>
<path d="M12 17.455C15.0124 17.455 17.4545 15.0129 17.4545 12.0004C17.4545 8.98798 15.0124 6.5459 12 6.5459C8.98749 6.5459 6.54541 8.98798 6.54541 12.0004C6.54541 15.0129 8.98749 17.455 12 17.455Z" fill="#F1F1F1"/>
<path d="M11.9999 16.364C14.4098 16.364 16.3635 14.4103 16.3635 12.0004C16.3635 9.59039 14.4098 7.63672 11.9999 7.63672C9.5899 7.63672 7.63623 9.59039 7.63623 12.0004C7.63623 14.4103 9.5899 16.364 11.9999 16.364Z" fill="#4285F4"/>
<path d="M12 24C18.6274 24 24 18.6274 24 12C24 5.37258 18.6274 0 12 0C5.37258 0 0 5.37258 0 12C0 18.6274 5.37258 24 12 24Z" fill="url(#paint6_radial_2980_51505)"/>
<path d="M16.7182 14.7276C16.2387 15.5542 15.5505 16.2403 14.7224 16.7173C13.8944 17.1942 12.9556 17.4452 12 17.4452C11.0444 17.4452 10.1056 17.1942 9.27756 16.7173C8.44952 16.2403 7.7613 15.5542 7.28182 14.7276L0 2.38672L7.28182 14.864C7.7613 15.6906 8.44952 16.3767 9.27756 16.8536C10.1056 17.3306 11.0444 17.5816 12 17.5816C12.9556 17.5816 13.8944 17.3306 14.7224 16.8536C15.5505 16.3767 16.2387 15.6906 16.7182 14.864V14.7276Z" fill="white" fill-opacity="0.1"/>
<path d="M12.1364 6.5459H12.0682C13.5148 6.5459 14.9022 7.12057 15.9251 8.1435C16.9481 9.16642 17.5227 10.5538 17.5227 12.0004C17.5227 13.4471 16.9481 14.8345 15.9251 15.8574C14.9022 16.8803 13.5148 17.455 12.0682 17.455H12.1364C15.1364 17.455 17.5909 15.0004 17.5909 12.0004C17.5909 9.00044 15.1364 6.5459 12.1364 6.5459ZM12 23.8641C15.1708 23.8641 18.2128 22.6092 20.4613 20.3735C22.7098 18.1378 23.982 15.103 24 11.9323V12.0004C24 15.183 22.7357 18.2353 20.4853 20.4857C18.2348 22.7362 15.1826 24.0004 12 24.0004C8.8174 24.0004 5.76516 22.7362 3.51472 20.4857C1.26428 18.2353 0 15.183 0 12.0004V11.9323C0.018016 15.103 1.29025 18.1378 3.53873 20.3735C5.78722 22.6092 8.82918 23.8641 12 23.8641Z" fill="#3E2723" fill-opacity="0.1"/>
<path d="M16.7727 14.9045C17.1535 14.2511 17.3917 13.5244 17.4717 12.7724C17.5516 12.0203 17.4714 11.2598 17.2364 10.5409C17.4484 11.236 17.5118 11.968 17.4225 12.6892C17.3333 13.4104 17.0933 14.1048 16.7182 14.7273L11.5909 24L16.8 14.9318L16.7727 14.9045ZM12 0.136364C15.1708 0.136312 18.2128 1.39123 20.4613 3.62694C22.7098 5.86265 23.982 8.89741 24 12.0682V12C24 8.8174 22.7357 5.76516 20.4853 3.51472C18.2348 1.26428 15.1826 0 12 0C8.8174 0 5.76516 1.26428 3.51472 3.51472C1.26428 5.76516 0 8.8174 0 12V12.0682C0.018016 8.89741 1.29025 5.86265 3.53873 3.62694C5.78722 1.39123 8.82918 0.136312 12 0.136364Z" fill="white" fill-opacity="0.2"/>
<path d="M12 6.40918C8.99996 6.40918 6.54541 8.86372 6.54541 11.8637V12.0001C6.54541 9.00009 8.99996 6.54554 12 6.54554H24V6.40918H12Z" fill="#3E2723" fill-opacity="0.2"/>
</g>
<path d="M48.474 18H46.35L44.964 14.364H39.42L38.052 18H36.018L41.112 5.4H43.362L48.474 18ZM41.778 8.136L40.032 12.762H44.37L42.606 8.136C42.462 7.74 42.336 7.38 42.21 7.002C42.084 7.38 41.94 7.758 41.778 8.136ZM53.1789 18.288C50.8929 18.288 49.1829 16.668 49.1829 13.662C49.1829 10.836 50.9109 9 53.2149 9C54.6369 9 55.5549 9.756 55.9869 10.494C55.9509 10.224 55.9509 9.972 55.9509 9.72V5.4H57.7509V18H55.9509V17.55C55.9509 17.28 55.9509 17.028 55.9869 16.794C55.5729 17.55 54.6009 18.288 53.1789 18.288ZM53.5569 16.884C55.0149 16.884 56.0769 15.606 56.0769 13.644C56.0769 11.664 55.0149 10.422 53.5569 10.422C52.0809 10.422 51.0189 11.718 51.0189 13.644C51.0189 15.606 52.0629 16.884 53.5569 16.884ZM63.7082 18.288C61.4222 18.288 59.7122 16.668 59.7122 13.662C59.7122 10.836 61.4402 9 63.7442 9C65.1662 9 66.0842 9.756 66.5162 10.494C66.4802 10.224 66.4802 9.972 66.4802 9.72V5.4H68.2802V18H66.4802V17.55C66.4802 17.28 66.4802 17.028 66.5162 16.794C66.1022 17.55 65.1302 18.288 63.7082 18.288ZM64.0862 16.884C65.5442 16.884 66.6062 15.606 66.6062 13.644C66.6062 11.664 65.5442 10.422 64.0862 10.422C62.6102 10.422 61.5482 11.718 61.5482 13.644C61.5482 15.606 62.5922 16.884 64.0862 16.884ZM77.9092 18.126C76.3972 18.126 75.2992 17.37 75.2992 15.426V10.728H73.5352V9.288H75.2992V6.3H77.0992V9.288H79.0252V10.728H77.0992V15.21C77.0992 16.182 77.5492 16.596 78.3772 16.596C78.5932 16.596 78.7912 16.578 79.0252 16.542V17.982C78.7552 18.054 78.3592 18.126 77.9092 18.126ZM84.5291 18.288C81.9731 18.288 80.1731 16.47 80.1731 13.644C80.1731 10.872 81.9731 9 84.5291 9C87.0671 9 88.8851 10.872 88.8851 13.644C88.8851 16.47 87.0671 18.288 84.5291 18.288ZM84.5291 16.884C86.0771 16.884 87.0491 15.624 87.0491 13.644C87.0491 11.664 86.0411 10.422 84.5291 10.422C83.0171 10.422 82.0091 11.664 82.0091 13.644C82.0091 15.624 82.9811 16.884 84.5291 16.884ZM100.55 18.288C96.8958 18.288 94.4658 15.804 94.4658 11.628C94.4658 7.65 97.1118 5.094 100.604 5.094C103.664 5.094 105.806 6.948 106.076 9.594H104.024C103.736 7.83 102.548 6.714 100.568 6.714C98.1378 6.714 96.4638 8.568 96.4638 11.628C96.4638 14.724 98.1558 16.686 100.55 16.686C102.548 16.686 103.844 15.498 104.15 13.752H106.094C105.77 16.524 103.682 18.288 100.55 18.288ZM109.741 18H107.959V5.4H109.741V9.702C109.741 9.954 109.741 10.206 109.723 10.494C110.191 9.63 111.145 9 112.387 9C114.367 9 115.555 10.296 115.555 12.492V18H113.773V12.744C113.773 11.232 113.179 10.422 111.919 10.422C110.587 10.422 109.741 11.484 109.741 12.798V18ZM119.743 18H117.961V9.288H119.743V9.774C119.743 10.116 119.743 10.458 119.725 10.782C120.157 9.792 121.057 9 122.389 9C122.515 9 122.659 9 122.803 9.018V10.782C122.677 10.746 122.515 10.728 122.263 10.728C120.715 10.728 119.743 11.574 119.743 13.5V18ZM127.93 18.288C125.374 18.288 123.574 16.47 123.574 13.644C123.574 10.872 125.374 9 127.93 9C130.468 9 132.286 10.872 132.286 13.644C132.286 16.47 130.468 18.288 127.93 18.288ZM127.93 16.884C129.478 16.884 130.45 15.624 130.45 13.644C130.45 11.664 129.442 10.422 127.93 10.422C126.418 10.422 125.41 11.664 125.41 13.644C125.41 15.624 126.382 16.884 127.93 16.884ZM136.038 18H134.256V9.288H136.038V9.864C136.038 10.062 136.038 10.278 136.02 10.494C136.506 9.666 137.352 9 138.558 9C139.674 9 140.61 9.666 141.042 10.674C141.6 9.738 142.626 9 143.886 9C145.632 9 146.91 10.206 146.91 12.492V18H145.128V12.816C145.128 11.304 144.624 10.422 143.436 10.422C142.23 10.422 141.474 11.484 141.474 12.852V18H139.674V12.834C139.674 11.322 139.188 10.422 138.018 10.422C136.812 10.422 136.038 11.484 136.038 12.906V18ZM153.101 18.288C150.491 18.288 148.781 16.632 148.781 13.608C148.781 10.908 150.581 9 153.011 9C155.639 9 157.115 10.836 157.115 13.644V14.022H150.599C150.635 15.786 151.679 16.884 153.119 16.884C154.127 16.884 155.045 16.434 155.243 15.246H157.043C156.863 16.884 155.531 18.288 153.101 18.288ZM150.617 12.744H155.225C155.225 11.322 154.397 10.368 153.011 10.368C151.661 10.368 150.743 11.394 150.617 12.744Z" fill="black"/>
<defs>
<linearGradient id="paint0_linear_2980_51505" x1="2.90415" y1="9.27273" x2="10.0632" y2="5.1" gradientUnits="userSpaceOnUse">
<stop stop-color="#A52714" stop-opacity="0.6"/>
<stop offset="0.7" stop-color="#A52714" stop-opacity="0"/>
</linearGradient>
<linearGradient id="paint1_linear_2980_51505" x1="14.0318" y1="21.4773" x2="6.06818" y2="16.8136" gradientUnits="userSpaceOnUse">
<stop stop-color="#055524" stop-opacity="0.4"/>
<stop offset="0.3" stop-color="#055524" stop-opacity="0"/>
</linearGradient>
<linearGradient id="paint2_linear_2980_51505" x1="15.6677" y1="5.83681" x2="17.6723" y2="14.605" gradientUnits="userSpaceOnUse">
<stop stop-color="#EA6100" stop-opacity="0.3"/>
<stop offset="0.7" stop-color="#EA6100" stop-opacity="0"/>
</linearGradient>
<radialGradient id="paint3_radial_2980_51505" cx="0" cy="0" r="1" gradientUnits="userSpaceOnUse" gradientTransform="translate(11.4818 6.5459) scale(11.4682)">
<stop stop-color="#3E2723" stop-opacity="0.2"/>
<stop offset="1" stop-color="#3E2723" stop-opacity="0"/>
</radialGradient>
<radialGradient id="paint4_radial_2980_51505" cx="0" cy="0" r="1" gradientUnits="userSpaceOnUse" gradientTransform="translate(1.89505 5.52246) scale(10.6364)">
<stop stop-color="#3E2723" stop-opacity="0.2"/>
<stop offset="1" stop-color="#3E2723" stop-opacity="0"/>
</radialGradient>
<radialGradient id="paint5_radial_2980_51505" cx="0" cy="0" r="1" gradientUnits="userSpaceOnUse" gradientTransform="translate(11.9722 12.0142) scale(11.9864)">
<stop stop-color="#263238" stop-opacity="0.2"/>
<stop offset="1" stop-color="#263238" stop-opacity="0"/>
</radialGradient>
<radialGradient id="paint6_radial_2980_51505" cx="0" cy="0" r="1" gradientUnits="userSpaceOnUse" gradientTransform="translate(3.58636 3.27273) scale(24.1091)">
<stop stop-color="white" stop-opacity="0.1"/>
<stop offset="1" stop-color="white" stop-opacity="0"/>
</radialGradient>
</defs>
</svg>