<svg width="48" height="48" viewBox="0 0 48 48" fill="none" xmlns="http://www.w3.org/2000/svg"><path d="M12 2C8.68629 2 5.99999 4.6863 6 8.00002L6.00008 38.8537C6.00008 41.5767 7.85293 44.0494 10.6288 44.6213C19.552 46.4596 28.4479 46.4596 37.3711 44.6213C40.147 44.0494 41.9998 41.5767 41.9998 38.8536V16.8503C41.9998 15.2349 41.3485 13.6878 40.1931 12.5588L31.1355 3.70853C30.0145 2.61322 28.5095 2 26.9422 2H12Z" fill="currentColor"></path><path fill-rule="evenodd" clip-rule="evenodd" d="M23.7234 36.1573C20.6608 36.1573 18.745 34.1506 18.745 30.9342V30.9202C18.745 27.7108 20.6748 25.7041 23.7234 25.7041C26.7929 25.7041 28.7088 27.7108 28.7088 30.9202V30.9342C28.7088 34.1506 26.7999 36.1573 23.7234 36.1573ZM23.7234 34.0317C25.1917 34.0317 26.1007 32.8291 26.1007 30.9342V30.9202C26.1007 29.0114 25.1708 27.8297 23.7234 27.8297C22.29 27.8297 21.3601 29.0044 21.3601 30.9202V30.9342C21.3601 32.8501 22.283 34.0317 23.7234 34.0317Z" fill="#9899A6"></path><path d="M34.7333 36.1573C31.7057 36.1573 29.8248 34.2205 29.8248 30.9272V30.9202C29.8248 27.6269 31.7197 25.7041 34.7333 25.7041C36.5968 25.7041 38.4355 26.7281 39.0608 28.4345C39.3109 29.117 38.696 29.7246 37.9692 29.7246C37.3096 29.7246 36.7936 29.1951 36.4094 28.659C36.0416 28.146 35.4583 27.8297 34.7333 27.8297C33.3279 27.8297 32.4399 28.9834 32.4399 30.9132V30.9202C32.4399 32.871 33.3349 34.0317 34.7403 34.0317C35.5129 34.0317 36.0912 33.6813 36.4517 33.1274C36.7889 32.6093 37.2803 32.1369 37.8985 32.1369C38.6507 32.1369 39.2591 32.7981 38.9761 33.495C38.3018 35.1555 36.7022 36.1573 34.7333 36.1573Z" fill="#9899A6"></path><path fill-rule="evenodd" clip-rule="evenodd" d="M8.70166 33.9754C8.70166 35.08 9.59709 35.9754 10.7017 35.9754H12.7991C15.8406 35.9754 17.6376 34.0945 17.6376 30.8711V30.8572C17.6376 27.6478 15.8406 25.8857 12.7991 25.8857H10.7017C9.59709 25.8857 8.70166 26.7812 8.70166 27.8857V33.9754ZM12.4634 33.9057H11.2678V27.9554H12.4634C14.0786 27.9554 15.0295 28.9763 15.0295 30.8641V30.8781C15.0295 32.8919 14.1346 33.9057 12.4634 33.9057Z" fill="#9899A6"></path><path d="M28 2.09375V11.0281C28 13.7739 30.1868 15.9998 32.8845 15.9998H41.9393C41.7532 14.6996 41.1437 13.4875 40.1931 12.5586L31.1355 3.70833C30.2699 2.86258 29.1754 2.30427 28 2.09375Z" fill="#9899A6"></path></svg>