<svg xmlns="http://www.w3.org/2000/svg" width="132" height="24" viewBox="0 0 132 24" fill="none">
<path d="M20.0543 16.8826C19.7861 17.022 19.5095 17.1446 19.2262 17.2498C18.329 17.5837 17.3789 17.7531 16.4216 17.7498C12.7264 17.7498 9.50772 15.2108 9.50772 11.9452C9.51252 11.508 9.63376 11.0799 9.85895 10.705C10.0841 10.3302 10.4051 10.0221 10.7889 9.8125C7.44529 9.95312 6.58594 13.4374 6.58594 15.4764C6.58594 21.2575 11.9061 21.8356 13.0545 21.8356C13.6717 21.8356 14.6013 21.6559 15.1638 21.4762L15.2654 21.445C17.4179 20.701 19.253 19.2462 20.4683 17.3201C20.5036 17.2616 20.5188 17.1931 20.5115 17.1251C20.5041 17.0571 20.4747 16.9935 20.4277 16.9438C20.3808 16.8942 20.3188 16.8613 20.2513 16.8502C20.1839 16.8392 20.1146 16.8505 20.0543 16.8826Z" fill="url(#paint0_linear_6027_16692)"/>
<path opacity="0.35" d="M20.0543 16.8826C19.7861 17.022 19.5095 17.1446 19.2262 17.2498C18.329 17.5837 17.3789 17.7531 16.4216 17.7498C12.7264 17.7498 9.50772 15.2108 9.50772 11.9452C9.51252 11.508 9.63376 11.0799 9.85895 10.705C10.0841 10.3302 10.4051 10.0221 10.7889 9.8125C7.44529 9.95312 6.58594 13.4374 6.58594 15.4764C6.58594 21.2575 11.9061 21.8356 13.0545 21.8356C13.6717 21.8356 14.6013 21.6559 15.1638 21.4762L15.2654 21.445C17.4179 20.701 19.253 19.2462 20.4683 17.3201C20.5036 17.2616 20.5188 17.1931 20.5115 17.1251C20.5041 17.0571 20.4747 16.9935 20.4277 16.9438C20.3808 16.8942 20.3188 16.8613 20.2513 16.8502C20.1839 16.8392 20.1146 16.8505 20.0543 16.8826Z" fill="url(#paint1_radial_6027_16692)"/>
<path d="M10.258 20.8511C9.56259 20.4192 8.95982 19.8536 8.48459 19.1871C7.9419 18.4443 7.56834 17.5917 7.39013 16.6892C7.21192 15.7867 7.23337 14.8562 7.45298 13.9628C7.67259 13.0695 8.08504 12.2351 8.66137 11.5181C9.23771 10.8011 9.96398 10.2189 10.7892 9.81237C11.0392 9.69519 11.4532 9.49207 12.0079 9.49988C12.3982 9.5029 12.7825 9.59615 13.1308 9.77233C13.4791 9.94851 13.782 10.2029 14.0157 10.5155C14.33 10.9382 14.5023 11.4496 14.5078 11.9764C14.5078 11.9607 16.4218 5.75781 8.25803 5.75781C4.82845 5.75781 2.00823 9.00771 2.00823 11.867C1.99459 13.3774 2.3175 14.8718 2.95351 16.2419C3.9951 18.4598 5.81478 20.2181 8.06713 21.183C10.3195 22.1478 12.8477 22.2521 15.1719 21.4761C14.3576 21.7332 13.4972 21.8105 12.6502 21.7026C11.8031 21.5947 10.9896 21.3042 10.2658 20.8511H10.258Z" fill="url(#paint2_linear_6027_16692)"/>
<path opacity="0.41" d="M10.258 20.8511C9.56259 20.4192 8.95982 19.8536 8.48459 19.1871C7.9419 18.4443 7.56834 17.5917 7.39013 16.6892C7.21192 15.7867 7.23337 14.8562 7.45298 13.9628C7.67259 13.0695 8.08504 12.2351 8.66137 11.5181C9.23771 10.8011 9.96398 10.2189 10.7892 9.81237C11.0392 9.69519 11.4532 9.49207 12.0079 9.49988C12.3982 9.5029 12.7825 9.59615 13.1308 9.77233C13.4791 9.94851 13.782 10.2029 14.0157 10.5155C14.33 10.9382 14.5023 11.4496 14.5078 11.9764C14.5078 11.9607 16.4218 5.75781 8.25803 5.75781C4.82845 5.75781 2.00823 9.00771 2.00823 11.867C1.99459 13.3774 2.3175 14.8718 2.95351 16.2419C3.9951 18.4598 5.81478 20.2181 8.06713 21.183C10.3195 22.1478 12.8477 22.2521 15.1719 21.4761C14.3576 21.7332 13.4972 21.8105 12.6502 21.7026C11.8031 21.5947 10.9896 21.3042 10.2658 20.8511H10.258Z" fill="url(#paint3_radial_6027_16692)"/>
<path d="M13.9059 13.6246C13.8356 13.7028 13.6403 13.8199 13.6403 14.0621C13.6403 14.2652 13.7731 14.4684 14.0153 14.6324C15.1324 15.4136 17.2495 15.3043 17.2573 15.3043C18.0902 15.3037 18.9076 15.0798 19.6245 14.6559C20.3462 14.2337 20.945 13.6303 21.3616 12.9054C21.7782 12.1805 21.998 11.3593 21.9994 10.5232C22.0228 8.77323 21.3744 7.6092 21.1166 7.09359C19.4526 3.85932 15.8824 2 11.9997 2C9.37179 1.99974 6.84941 3.03395 4.9781 4.87895C3.10678 6.72395 2.03695 9.23143 2 11.8591C2.03906 9.00759 4.87491 6.70298 8.24981 6.70298C8.52324 6.70298 10.0857 6.72642 11.531 7.4842C12.5463 7.98876 13.3872 8.78606 13.9449 9.7732C14.4215 10.6013 14.5074 11.6559 14.5074 12.0778C14.5074 12.4997 14.2965 13.1168 13.8981 13.6325L13.9059 13.6246Z" fill="url(#paint4_radial_6027_16692)"/>
<path d="M13.9059 13.6246C13.8356 13.7028 13.6403 13.8199 13.6403 14.0621C13.6403 14.2652 13.7731 14.4684 14.0153 14.6324C15.1324 15.4136 17.2495 15.3043 17.2573 15.3043C18.0902 15.3037 18.9076 15.0798 19.6245 14.6559C20.3462 14.2337 20.945 13.6303 21.3616 12.9054C21.7782 12.1805 21.998 11.3593 21.9994 10.5232C22.0228 8.77323 21.3744 7.6092 21.1166 7.09359C19.4526 3.85932 15.8824 2 11.9997 2C9.37179 1.99974 6.84941 3.03395 4.9781 4.87895C3.10678 6.72395 2.03695 9.23143 2 11.8591C2.03906 9.00759 4.87491 6.70298 8.24981 6.70298C8.52324 6.70298 10.0857 6.72642 11.531 7.4842C12.5463 7.98876 13.3872 8.78606 13.9449 9.7732C14.4215 10.6013 14.5074 11.6559 14.5074 12.0778C14.5074 12.4997 14.2965 13.1168 13.8981 13.6325L13.9059 13.6246Z" fill="url(#paint5_radial_6027_16692)"/>
<path d="M44.474 18H42.35L40.964 14.364H35.42L34.052 18H32.018L37.112 5.4H39.362L44.474 18ZM37.778 8.136L36.032 12.762H40.37L38.606 8.136C38.462 7.74 38.336 7.38 38.21 7.002C38.084 7.38 37.94 7.758 37.778 8.136ZM49.1789 18.288C46.8929 18.288 45.1829 16.668 45.1829 13.662C45.1829 10.836 46.9109 9 49.2149 9C50.6369 9 51.5549 9.756 51.9869 10.494C51.9509 10.224 51.9509 9.972 51.9509 9.72V5.4H53.7509V18H51.9509V17.55C51.9509 17.28 51.9509 17.028 51.9869 16.794C51.5729 17.55 50.6009 18.288 49.1789 18.288ZM49.5569 16.884C51.0149 16.884 52.0769 15.606 52.0769 13.644C52.0769 11.664 51.0149 10.422 49.5569 10.422C48.0809 10.422 47.0189 11.718 47.0189 13.644C47.0189 15.606 48.0629 16.884 49.5569 16.884ZM59.7082 18.288C57.4222 18.288 55.7122 16.668 55.7122 13.662C55.7122 10.836 57.4402 9 59.7442 9C61.1662 9 62.0842 9.756 62.5162 10.494C62.4802 10.224 62.4802 9.972 62.4802 9.72V5.4H64.2802V18H62.4802V17.55C62.4802 17.28 62.4802 17.028 62.5162 16.794C62.1022 17.55 61.1302 18.288 59.7082 18.288ZM60.0862 16.884C61.5442 16.884 62.6062 15.606 62.6062 13.644C62.6062 11.664 61.5442 10.422 60.0862 10.422C58.6102 10.422 57.5482 11.718 57.5482 13.644C57.5482 15.606 58.5922 16.884 60.0862 16.884ZM73.9092 18.126C72.3972 18.126 71.2992 17.37 71.2992 15.426V10.728H69.5352V9.288H71.2992V6.3H73.0992V9.288H75.0252V10.728H73.0992V15.21C73.0992 16.182 73.5492 16.596 74.3772 16.596C74.5932 16.596 74.7912 16.578 75.0252 16.542V17.982C74.7552 18.054 74.3592 18.126 73.9092 18.126ZM80.5291 18.288C77.9731 18.288 76.1731 16.47 76.1731 13.644C76.1731 10.872 77.9731 9 80.5291 9C83.0671 9 84.8851 10.872 84.8851 13.644C84.8851 16.47 83.0671 18.288 80.5291 18.288ZM80.5291 16.884C82.0771 16.884 83.0491 15.624 83.0491 13.644C83.0491 11.664 82.0411 10.422 80.5291 10.422C79.0171 10.422 78.0091 11.664 78.0091 13.644C78.0091 15.624 78.9811 16.884 80.5291 16.884ZM99.8438 18H91.2038V5.4H99.6098V7.002H93.1118V10.728H99.3398V12.348H93.1118V16.38H99.8438V18ZM105.323 18.288C103.037 18.288 101.327 16.668 101.327 13.662C101.327 10.836 103.055 9 105.359 9C106.781 9 107.699 9.756 108.131 10.494C108.095 10.224 108.095 9.972 108.095 9.72V5.4H109.895V18H108.095V17.55C108.095 17.28 108.095 17.028 108.131 16.794C107.717 17.55 106.745 18.288 105.323 18.288ZM105.701 16.884C107.159 16.884 108.221 15.606 108.221 13.644C108.221 11.664 107.159 10.422 105.701 10.422C104.225 10.422 103.163 11.718 103.163 13.644C103.163 15.606 104.207 16.884 105.701 16.884ZM116.141 22.05C113.729 22.05 112.253 20.736 112.253 18.756H114.035C114.053 19.908 114.845 20.646 116.159 20.646C117.617 20.646 118.589 19.872 118.589 18.162V17.154C118.589 16.866 118.607 16.632 118.625 16.38C118.139 17.226 117.131 17.82 115.817 17.82C113.459 17.82 111.875 16.146 111.875 13.428C111.875 10.728 113.657 9 115.817 9C117.293 9 118.139 9.684 118.625 10.494C118.607 10.242 118.589 9.99 118.589 9.72V9.288H120.389V17.622C120.389 20.61 118.841 22.05 116.141 22.05ZM116.213 16.416C117.671 16.416 118.715 15.21 118.715 13.428C118.715 11.664 117.671 10.422 116.213 10.422C114.737 10.422 113.711 11.646 113.711 13.428C113.711 15.21 114.737 16.416 116.213 16.416ZM126.671 18.288C124.061 18.288 122.351 16.632 122.351 13.608C122.351 10.908 124.151 9 126.581 9C129.209 9 130.685 10.836 130.685 13.644V14.022H124.169C124.205 15.786 125.249 16.884 126.689 16.884C127.697 16.884 128.615 16.434 128.813 15.246H130.613C130.433 16.884 129.101 18.288 126.671 18.288ZM124.187 12.744H128.795C128.795 11.322 127.967 10.368 126.581 10.368C125.231 10.368 124.313 11.394 124.187 12.744Z" fill="black"/>
<defs>
<linearGradient id="paint0_linear_6027_16692" x1="6.58594" y1="15.8279" x2="20.523" y2="15.8279" gradientUnits="userSpaceOnUse">
<stop stop-color="#0C59A4"/>
<stop offset="1" stop-color="#114A8B"/>
</linearGradient>
<radialGradient id="paint1_radial_6027_16692" cx="0" cy="0" r="1" gradientUnits="userSpaceOnUse" gradientTransform="translate(14.281 15.933) scale(7.45289 7.08025)">
<stop offset="0.7" stop-opacity="0"/>
<stop offset="0.9" stop-opacity="0.5"/>
<stop offset="1"/>
</radialGradient>
<linearGradient id="paint2_linear_6027_16692" x1="13.9297" y1="9.78112" x2="5.23469" y2="19.2574" gradientUnits="userSpaceOnUse">
<stop stop-color="#1B9DE2"/>
<stop offset="0.2" stop-color="#1595DF"/>
<stop offset="0.7" stop-color="#0680D7"/>
<stop offset="1" stop-color="#0078D4"/>
</linearGradient>
<radialGradient id="paint3_radial_6027_16692" cx="0" cy="0" r="1" gradientUnits="userSpaceOnUse" gradientTransform="translate(7.51235 17.5416) rotate(-81.3844) scale(11.2017 9.04984)">
<stop offset="0.8" stop-opacity="0"/>
<stop offset="0.9" stop-opacity="0.5"/>
<stop offset="1"/>
</radialGradient>
<radialGradient id="paint4_radial_6027_16692" cx="0" cy="0" r="1" gradientUnits="userSpaceOnUse" gradientTransform="translate(4.02259 5.69645) rotate(92.2906) scale(15.8247 33.7032)">
<stop stop-color="#35C1F1"/>
<stop offset="0.1" stop-color="#34C1ED"/>
<stop offset="0.2" stop-color="#2FC2DF"/>
<stop offset="0.3" stop-color="#2BC3D2"/>
<stop offset="0.7" stop-color="#36C752"/>
</radialGradient>
<radialGradient id="paint5_radial_6027_16692" cx="0" cy="0" r="1" gradientUnits="userSpaceOnUse" gradientTransform="translate(20.7541 8.03887) rotate(73.7398) scale(7.60133 6.1814)">
<stop stop-color="#66EB6E"/>
<stop offset="1" stop-color="#66EB6E" stop-opacity="0"/>
</radialGradient>
</defs>
</svg>