<svg width="48" height="48" viewBox="0 0 48 48" fill="none" xmlns="http://www.w3.org/2000/svg"><path d="M12 2C8.68629 2 5.99999 4.6863 6 8.00002L6.00008 38.8537C6.00008 41.5767 7.85293 44.0494 10.6288 44.6213C19.552 46.4596 28.4479 46.4596 37.3711 44.6213C40.147 44.0494 41.9998 41.5767 41.9998 38.8536V16.8503C41.9998 15.2349 41.3485 13.6878 40.1931 12.5588L31.1355 3.70853C30.0145 2.61322 28.5095 2 26.9422 2H12Z" fill="currentColor"></path><path d="M23.5647 31.4091C23.5647 33.2733 24.9801 34.4989 27.1435 34.4989C29.3012 34.4989 30.7166 33.2733 30.7166 31.4091V27.0247C30.7166 26.3228 30.3311 25.9258 29.6579 25.9258C28.9905 25.9258 28.605 26.3228 28.605 27.0247V31.1847C28.605 32.1513 28.0814 32.7267 27.1435 32.7267C26.1999 32.7267 25.6763 32.1513 25.6763 31.1847V27.0247C25.6763 26.3228 25.2908 25.9258 24.6234 25.9258C23.956 25.9258 23.5647 26.3228 23.5647 27.0247V31.4091Z" fill="#9899A6"></path><path fill-rule="evenodd" clip-rule="evenodd" d="M31.9765 33.2502C31.9765 33.9521 32.3677 34.3549 33.0352 34.3549H35.9408C37.7187 34.3549 38.8407 33.417 38.8407 31.9613C38.8407 30.8566 37.9546 30.0223 36.8326 29.9706V29.9245C37.7532 29.7979 38.4552 29.0557 38.4552 28.1236C38.4552 26.8405 37.4713 26.0522 35.8372 26.0522H33.0352C32.3677 26.0522 31.9765 26.455 31.9765 27.157V33.2502ZM35.1756 29.4355H34.0881V27.5482H35.2791C35.9868 27.5482 36.4011 27.8934 36.4011 28.4746C36.4011 29.073 35.9408 29.4355 35.1756 29.4355ZM35.3424 32.8589H34.0881V30.7185H35.3309C36.1997 30.7185 36.6945 31.0983 36.6945 31.7772C36.6945 32.4792 36.2112 32.8589 35.3424 32.8589Z" fill="#9899A6"></path><path fill-rule="evenodd" clip-rule="evenodd" d="M17.0975 34.4815C16.4301 34.4815 16.0388 34.0845 16.0388 33.3825V27.157C16.0388 26.455 16.4301 26.0522 17.0975 26.0522H19.6349C21.4186 26.0522 22.6269 27.2087 22.6269 28.9924C22.6269 30.7646 21.3553 31.9211 19.5083 31.9211H18.1504V33.3825C18.1504 34.0845 17.7649 34.4815 17.0975 34.4815ZM18.1504 30.333H19.0653C19.9629 30.333 20.4922 29.867 20.4922 28.9982C20.4922 28.1351 19.9629 27.669 19.0768 27.669H18.1504V30.333Z" fill="#9899A6"></path><path d="M9.1582 33.2502C9.1582 33.9521 9.54946 34.3549 10.2169 34.3549H14.0201C14.5897 34.3549 14.958 34.0442 14.958 33.5034C14.958 32.9625 14.5782 32.6518 14.0201 32.6518H11.2698V30.9602H13.8935C14.4171 30.9602 14.7451 30.6725 14.7451 30.1834C14.7451 29.6944 14.4056 29.4067 13.8935 29.4067H11.2698V27.7554H14.0201C14.5782 27.7554 14.958 27.4447 14.958 26.9038C14.958 26.3629 14.5897 26.0522 14.0201 26.0522H10.2169C9.54946 26.0522 9.1582 26.455 9.1582 27.157V33.2502Z" fill="#9899A6"></path><path d="M28 2.09375V11.0281C28 13.7739 30.1868 15.9998 32.8845 15.9998H41.9393C41.7532 14.6996 41.1437 13.4875 40.1931 12.5586L31.1355 3.70833C30.2699 2.86258 29.1754 2.30427 28 2.09375Z" fill="#9899A6"></path></svg>