<svg xmlns="http://www.w3.org/2000/svg" width="209" height="38" viewBox="0 0 209 38" fill="none">
<path d="M25.5476 19.0512C25.5794 16.5809 26.906 14.2435 29.0106 12.9497C27.6829 11.0535 25.4591 9.85132 23.1455 9.77894C20.6779 9.51992 18.2856 11.2555 17.0281 11.2555C15.7463 11.2555 13.8102 9.80465 11.7253 9.84755C9.00784 9.93535 6.47444 11.4804 5.15232 13.8562C2.31029 18.7767 4.43019 26.0083 7.15263 29.9857C8.51472 31.9333 10.1066 34.1088 12.1896 34.0317C14.2279 33.9472 14.9891 32.7319 17.4496 32.7319C19.8871 32.7319 20.6013 34.0317 22.7266 33.9826C24.9138 33.9471 26.2918 32.0264 27.6061 30.0603C28.5848 28.6726 29.3378 27.1388 29.8374 25.5158C27.2671 24.4287 25.5506 21.842 25.5476 19.0512Z" fill="black"/>
<path d="M21.5334 7.1632C22.7259 5.73159 23.3134 3.8915 23.1712 2.03369C21.3492 2.22505 19.6662 3.09583 18.4576 4.47251C17.2757 5.8176 16.6606 7.62532 16.7769 9.41212C18.5995 9.43088 20.3913 8.58372 21.5334 7.1632Z" fill="black"/>
<path d="M60.917 33.3046V19.7864H60.8275L55.2911 33.1645H53.1779L47.627 19.7864H47.5389V33.3046H44.9419V14.9375H48.2395L54.1832 29.435H54.2843L60.2165 14.9375H63.5256V33.3046L60.917 33.3046Z" fill="black"/>
<path d="M65.7168 29.4979C65.7168 27.1565 67.5107 25.7424 70.6942 25.5517L74.3601 25.348V24.3297C74.3601 22.8405 73.3794 21.9999 71.7111 21.9999C71.0932 21.9177 70.4666 22.0639 69.9488 22.4109C69.431 22.758 69.0576 23.282 68.8988 23.8848H66.3278C66.4044 21.4654 68.6576 19.748 71.7877 19.748C74.9827 19.748 77.0959 21.4914 77.0959 24.1261V33.3039H74.4613V31.1012H74.3977C73.9757 31.848 73.3609 32.4678 72.6174 32.8957C71.8739 33.3236 71.0291 33.5439 70.1713 33.5335C69.608 33.5887 69.0393 33.5253 68.5019 33.3477C67.9645 33.17 67.4701 32.8819 67.0507 32.5018C66.6312 32.1218 66.2958 31.6582 66.0661 31.1409C65.8364 30.6236 65.7174 30.0639 65.7168 29.4979ZM74.3601 28.2889V27.2576L71.0626 27.4612C69.4203 27.5638 68.4915 28.2759 68.4915 29.4213C68.4915 30.5927 69.4593 31.3568 70.9354 31.3568C71.363 31.3858 71.792 31.3289 72.1972 31.1895C72.6024 31.0501 72.9756 30.831 73.2948 30.545C73.6139 30.2591 73.8726 29.9122 74.0556 29.5247C74.2386 29.1372 74.3421 28.717 74.3602 28.2889H74.3601Z" fill="black"/>
<path d="M88.6404 24.5211C88.5203 23.7886 88.129 23.1281 87.5443 22.6708C86.9596 22.2134 86.2243 21.9928 85.4844 22.0526C83.3712 22.0526 81.9716 23.822 81.9716 26.6097C81.9716 29.4609 83.3842 31.1783 85.5089 31.1783C86.239 31.2514 86.9694 31.0433 87.5513 30.5964C88.1332 30.1496 88.5227 29.4975 88.6404 28.7734H91.288C91.1233 30.1581 90.4245 31.4239 89.3406 32.3012C88.2566 33.1785 86.8731 33.5981 85.4844 33.4706C81.6654 33.4706 79.1709 30.8606 79.1709 26.6097C79.1709 22.4469 81.6654 19.7488 85.4584 19.7488C86.8573 19.6301 88.2471 20.0627 89.3316 20.9542C90.4161 21.8458 91.1093 23.1257 91.2635 24.5211H88.6404Z" fill="black"/>
<path d="M109.151 28.3397H102.15L100.468 33.3041H97.5029L104.134 14.937H107.215L113.846 33.3041H110.83L109.151 28.3397ZM102.875 26.0489H108.424L105.688 17.992H105.612L102.875 26.0489Z" fill="black"/>
<path d="M128.166 26.6099C128.166 30.7712 125.938 33.4448 122.577 33.4448C121.726 33.4893 120.879 33.2932 120.134 32.8788C119.389 32.4645 118.775 31.8487 118.364 31.1019H118.3V37.7347H115.552V19.9136H118.212V22.1409H118.263C118.693 21.3977 119.317 20.7851 120.068 20.3682C120.819 19.9513 121.668 19.7458 122.527 19.7735C125.925 19.7735 128.166 22.4601 128.166 26.6099ZM125.34 26.6099C125.34 23.8987 123.939 22.1163 121.802 22.1163C119.702 22.1163 118.289 23.9363 118.289 26.6099C118.289 29.308 119.702 31.115 121.802 31.115C123.939 31.115 125.34 29.3456 125.34 26.6099Z" fill="black"/>
<path d="M142.908 26.6099C142.908 30.7712 140.681 33.4448 137.32 33.4448C136.468 33.4893 135.621 33.2932 134.876 32.8788C134.131 32.4645 133.518 31.8487 133.106 31.1019H133.043V37.7347H130.294V19.9136H132.955V22.1409H133.005C133.435 21.3977 134.059 20.7851 134.81 20.3682C135.561 19.9513 136.411 19.7458 137.269 19.7735C140.668 19.7735 142.908 22.4601 142.908 26.6099ZM140.083 26.6099C140.083 23.8987 138.682 22.1163 136.544 22.1163C134.444 22.1163 133.031 23.9363 133.031 26.6099C133.031 29.308 134.444 31.115 136.544 31.115C138.682 31.115 140.083 29.3456 140.083 26.6099H140.083Z" fill="black"/>
<path d="M152.65 28.1867C152.853 30.0081 154.623 31.204 157.041 31.204C159.358 31.204 161.024 30.008 161.024 28.3657C161.024 26.9401 160.019 26.0865 157.639 25.5015L155.258 24.928C151.886 24.1134 150.32 22.5361 150.32 19.9766C150.32 16.8076 153.082 14.6309 157.003 14.6309C160.884 14.6309 163.545 16.8076 163.634 19.9766H160.86C160.694 18.1437 159.178 17.0372 156.964 17.0372C154.75 17.0372 153.235 18.1567 153.235 19.786C153.235 21.0845 154.202 21.8486 156.57 22.4335L158.593 22.9304C162.362 23.8216 163.928 25.3354 163.928 28.0219C163.928 31.4581 161.19 33.6103 156.837 33.6103C152.764 33.6103 150.014 31.5087 149.836 28.1866L152.65 28.1867Z" fill="black"/>
<path d="M169.856 16.7441V19.9132H172.403V22.0899H169.856V29.4723C169.856 30.6191 170.366 31.1535 171.486 31.1535C171.788 31.1483 172.09 31.127 172.39 31.0899V33.2537C171.886 33.3477 171.375 33.3903 170.863 33.3808C168.152 33.3808 167.095 32.3625 167.095 29.7654V22.0899H165.147V19.9132H167.095V16.7441H169.856Z" fill="black"/>
<path d="M173.879 26.61C173.879 22.3966 176.36 19.749 180.23 19.749C184.113 19.749 186.582 22.3966 186.582 26.61C186.582 30.8349 184.126 33.4709 180.23 33.4709C176.336 33.4709 173.879 30.8348 173.879 26.61ZM183.782 26.61C183.782 23.7197 182.457 22.0139 180.23 22.0139C178.003 22.0139 176.678 23.7327 176.678 26.61C176.678 29.5118 178.003 31.2046 180.23 31.2046C182.457 31.2046 183.782 29.5118 183.782 26.61H183.782Z" fill="black"/>
<path d="M188.85 19.9135H191.471V22.1927H191.535C191.712 21.4808 192.129 20.8517 192.716 20.4112C193.302 19.9706 194.023 19.7453 194.756 19.7733C195.073 19.7722 195.388 19.8066 195.698 19.8759V22.4469C195.298 22.3247 194.881 22.2686 194.463 22.2808C194.063 22.2646 193.665 22.335 193.296 22.4872C192.926 22.6394 192.594 22.8697 192.322 23.1624C192.05 23.4551 191.844 23.8032 191.719 24.1829C191.594 24.5625 191.553 24.9647 191.598 25.3617V33.3045H188.85V19.9135Z" fill="black"/>
<path d="M208.37 29.3717C208 31.8026 205.632 33.4709 202.604 33.4709C198.708 33.4709 196.29 30.8608 196.29 26.6735C196.29 22.4732 198.721 19.749 202.488 19.749C206.193 19.749 208.523 22.2941 208.523 26.3543V27.296H199.065V27.4622C199.021 27.955 199.083 28.4515 199.246 28.9186C199.409 29.3858 199.669 29.8129 200.01 30.1716C200.351 30.5304 200.764 30.8125 201.222 30.9993C201.68 31.1862 202.173 31.2734 202.667 31.2552C203.317 31.316 203.969 31.1656 204.526 30.8262C205.083 30.4869 205.516 29.9767 205.76 29.3716L208.37 29.3717ZM199.078 25.375H205.773C205.797 24.9319 205.73 24.4884 205.575 24.0725C205.42 23.6566 205.181 23.2771 204.873 22.958C204.564 22.6389 204.193 22.3869 203.783 22.218C203.373 22.049 202.932 21.9668 202.488 21.9763C202.04 21.9736 201.597 22.0596 201.182 22.2293C200.768 22.3991 200.392 22.6491 200.075 22.9651C199.758 23.2811 199.506 23.6567 199.335 24.0703C199.164 24.484 199.077 24.9274 199.078 25.375L199.078 25.375Z" fill="black"/>
<path d="M48.6067 0.698979C49.183 0.657626 49.7613 0.744684 50.2998 0.953873C50.8384 1.16306 51.3238 1.48917 51.721 1.90867C52.1183 2.32817 52.4175 2.83061 52.5971 3.37975C52.7766 3.92889 52.8321 4.51103 52.7594 5.08419C52.7594 7.90368 51.2356 9.52437 48.6067 9.52437H45.4189V0.698979H48.6067ZM46.7897 8.27627H48.4536C48.8654 8.30088 49.2775 8.23337 49.6599 8.07863C50.0423 7.9239 50.3854 7.68585 50.6642 7.3818C50.943 7.07775 51.1505 6.71537 51.2715 6.32102C51.3926 5.92667 51.4242 5.51029 51.3641 5.10218C51.4199 4.69568 51.3851 4.28188 51.2621 3.89042C51.1392 3.49896 50.9312 3.13954 50.653 2.83792C50.3749 2.53629 50.0334 2.29992 49.6532 2.14575C49.2729 1.99157 48.8633 1.92341 48.4536 1.94615H46.7897V8.27627Z" fill="black"/>
<path d="M54.3049 6.19151C54.263 5.75383 54.3131 5.31222 54.4519 4.89502C54.5907 4.47782 54.8151 4.09424 55.1109 3.76887C55.4066 3.4435 55.7671 3.18353 56.1692 3.00563C56.5712 2.82773 57.0061 2.73584 57.4458 2.73584C57.8854 2.73584 58.3203 2.82773 58.7224 3.00563C59.1244 3.18353 59.4849 3.4435 59.7806 3.76887C60.0764 4.09424 60.3008 4.47782 60.4396 4.89502C60.5784 5.31222 60.6285 5.75383 60.5866 6.19151C60.6293 6.62965 60.5798 7.07186 60.4414 7.48974C60.303 7.90761 60.0786 8.2919 59.7828 8.61791C59.487 8.94392 59.1263 9.20443 58.7238 9.38271C58.3213 9.56099 57.886 9.65309 57.4458 9.65309C57.0056 9.65309 56.5702 9.56099 56.1677 9.38271C55.7652 9.20443 55.4045 8.94392 55.1087 8.61791C54.8129 8.2919 54.5886 7.90761 54.4501 7.48974C54.3117 7.07186 54.2622 6.62965 54.3049 6.19151ZM59.2346 6.19151C59.2346 4.74783 58.5861 3.90358 57.4479 3.90358C56.3054 3.90358 55.6627 4.74784 55.6627 6.19153C55.6627 7.64677 56.3054 8.48452 57.4479 8.48452C58.5861 8.48451 59.2347 7.64097 59.2347 6.19151H59.2346Z" fill="black"/>
<path d="M68.9382 9.52393H67.5747L66.1982 4.61872H66.0942L64.7235 9.52393H63.373L61.5371 2.86377H62.8703L64.0634 7.94586H64.1616L65.5309 2.86377H66.7919L68.1612 7.94586H68.2652L69.4525 2.86377H70.7669L68.9382 9.52393Z" fill="black"/>
<path d="M72.3125 2.86412H73.5778V3.92215H73.676C73.8426 3.54214 74.1237 3.22359 74.4799 3.01089C74.8362 2.79819 75.25 2.70194 75.6635 2.73556C75.9876 2.7112 76.313 2.76006 76.6156 2.87853C76.9182 2.99699 77.1903 3.18203 77.4117 3.41993C77.6331 3.65783 77.7981 3.94249 77.8946 4.25283C77.991 4.56317 78.0164 4.89123 77.9688 5.21271V9.52421H76.6544V5.54278C76.6544 4.47248 76.1893 3.94021 75.2172 3.94021C74.9972 3.92996 74.7775 3.96741 74.5733 4.04998C74.3691 4.13256 74.1852 4.25831 74.0342 4.41862C73.8831 4.57893 73.7685 4.77 73.6982 4.97875C73.6279 5.18749 73.6036 5.40896 73.6269 5.62799V9.52428H72.3125L72.3125 2.86412Z" fill="black"/>
<path d="M80.0625 0.26416H81.3769V9.52425H80.0625V0.26416Z" fill="black"/>
<path d="M83.2072 6.19151C83.1654 5.75383 83.2154 5.31222 83.3542 4.89502C83.493 4.47782 83.7175 4.09424 84.0132 3.76887C84.309 3.4435 84.6694 3.18353 85.0715 3.00563C85.4736 2.82773 85.9084 2.73584 86.3481 2.73584C86.7878 2.73584 87.2226 2.82773 87.6247 3.00563C88.0268 3.18353 88.3873 3.4435 88.683 3.76887C88.9787 4.09424 89.2032 4.47782 89.342 4.89502C89.4808 5.31222 89.5308 5.75383 89.489 6.19151C89.5316 6.62965 89.4822 7.07186 89.3437 7.48974C89.2053 7.90761 88.981 8.2919 88.6852 8.61791C88.3894 8.94392 88.0286 9.20443 87.6261 9.38271C87.2237 9.56099 86.7883 9.65309 86.3481 9.65309C85.9079 9.65309 85.4726 9.56099 85.0701 9.38271C84.6676 9.20443 84.3068 8.94392 84.011 8.61791C83.7152 8.2919 83.4909 7.90761 83.3525 7.48974C83.214 7.07186 83.1646 6.62965 83.2072 6.19151ZM88.137 6.19151C88.137 4.74783 87.4884 3.90358 86.3503 3.90358C85.2077 3.90358 84.565 4.74784 84.565 6.19153C84.565 7.64677 85.2078 8.48452 86.3503 8.48452C87.4885 8.48451 88.137 7.64097 88.137 6.19151H88.137Z" fill="black"/>
<path d="M90.8691 7.64104C90.8691 6.44217 91.7618 5.75103 93.3463 5.65281L95.1504 5.54882V4.97394C95.1504 4.27051 94.6853 3.87331 93.7868 3.87331C93.0531 3.87331 92.5447 4.14269 92.3988 4.61357H91.1262C91.2606 3.46959 92.3367 2.73584 93.8475 2.73584C95.5172 2.73584 96.459 3.56708 96.459 4.97394V9.52455H95.1937V8.58858H95.0897C94.8786 8.92431 94.5822 9.19801 94.2307 9.38173C93.8793 9.56545 93.4854 9.6526 93.0892 9.63428C92.8096 9.66336 92.527 9.63353 92.2597 9.54671C91.9923 9.45989 91.7461 9.31801 91.5369 9.13022C91.3278 8.94242 91.1603 8.71287 91.0453 8.45638C90.9302 8.19989 90.8702 7.92214 90.8691 7.64104ZM95.1504 7.07193V6.51512L93.5239 6.61912C92.6067 6.6805 92.1908 6.99249 92.1908 7.57964C92.1908 8.17906 92.7107 8.52789 93.4258 8.52789C93.6353 8.5491 93.8469 8.52794 94.0481 8.46569C94.2492 8.40343 94.4358 8.30135 94.5967 8.16551C94.7576 8.02967 94.8896 7.86285 94.9847 7.67498C95.0798 7.48711 95.1361 7.28203 95.1504 7.07193Z" fill="black"/>
<path d="M98.1895 6.19131C98.1895 4.08681 99.2713 2.75362 100.954 2.75362C101.37 2.73444 101.783 2.83413 102.145 3.04105C102.507 3.24796 102.802 3.55355 102.996 3.92208H103.095V0.26416H104.409V9.52425H103.15V8.47199H103.046C102.836 8.83805 102.531 9.13983 102.162 9.34466C101.793 9.54948 101.376 9.64954 100.954 9.63401C99.2598 9.63408 98.1895 8.30086 98.1895 6.19131ZM99.5472 6.19131C99.5472 7.60394 100.213 8.45398 101.327 8.45398C102.435 8.45398 103.119 7.59168 103.119 6.19709C103.119 4.80901 102.427 3.93442 101.327 3.93442C100.22 3.93442 99.5472 4.79023 99.5472 6.19131H99.5472Z" fill="black"/>
<path d="M109.844 6.19164C109.802 5.75392 109.852 5.3123 109.991 4.89508C110.13 4.47786 110.354 4.09426 110.65 3.76889C110.946 3.44351 111.306 3.18353 111.708 3.00563C112.111 2.82774 112.545 2.73584 112.985 2.73584C113.425 2.73584 113.86 2.82774 114.262 3.00563C114.664 3.18353 115.024 3.44351 115.32 3.76889C115.616 4.09426 115.84 4.47786 115.979 4.89508C116.118 5.3123 116.168 5.75392 116.126 6.19164C116.169 6.62979 116.119 7.07201 115.981 7.48988C115.843 7.90775 115.618 8.29204 115.322 8.61804C115.026 8.94404 114.666 9.20454 114.263 9.38281C113.861 9.56108 113.425 9.65318 112.985 9.65318C112.545 9.65318 112.11 9.56108 111.707 9.38281C111.305 9.20454 110.944 8.94404 110.648 8.61804C110.352 8.29204 110.128 7.90775 109.989 7.48988C109.851 7.07201 109.801 6.62979 109.844 6.19164ZM114.774 6.19164C114.774 4.74796 114.125 3.9037 112.987 3.9037C111.844 3.9037 111.202 4.74796 111.202 6.19165C111.202 7.6469 111.844 8.48464 112.987 8.48464C114.125 8.48463 114.774 7.6411 114.774 6.19164H114.774Z" fill="black"/>
<path d="M117.891 2.86412H119.156V3.92215H119.254C119.421 3.54214 119.702 3.22359 120.058 3.01089C120.414 2.79819 120.828 2.70194 121.242 2.73556C121.566 2.7112 121.891 2.76006 122.194 2.87853C122.496 2.99699 122.768 3.18203 122.99 3.41993C123.211 3.65783 123.376 3.94249 123.473 4.25283C123.569 4.56317 123.594 4.89123 123.547 5.21271V9.52421H122.233V5.54278C122.233 4.47248 121.767 3.94021 120.795 3.94021C120.575 3.92996 120.356 3.96741 120.151 4.04998C119.947 4.13256 119.763 4.25831 119.612 4.41862C119.461 4.57893 119.347 4.77 119.276 4.97875C119.206 5.18749 119.182 5.40896 119.205 5.62799V9.52428H117.891V2.86412Z" fill="black"/>
<path d="M130.977 1.20654V2.89505H132.42V4.0022H130.977V7.42688C130.977 8.12453 131.264 8.43002 131.918 8.43002C132.086 8.42948 132.253 8.41936 132.42 8.39969V9.49454C132.184 9.53677 131.944 9.55923 131.705 9.5617C130.243 9.5617 129.661 9.04749 129.661 7.76342V4.00214H128.604V2.89499H129.661V1.20654H130.977Z" fill="black"/>
<path d="M134.214 0.26416H135.517V3.9344H135.621C135.795 3.55085 136.084 3.2305 136.448 3.017C136.811 2.8035 137.231 2.70723 137.651 2.74132C137.974 2.72378 138.296 2.77761 138.595 2.89895C138.895 3.0203 139.163 3.20618 139.382 3.44333C139.601 3.68048 139.765 3.96306 139.863 4.27091C139.96 4.57875 139.988 4.90428 139.945 5.22426V9.52426H138.629V5.54852C138.629 4.48471 138.134 3.94594 137.205 3.94594C136.979 3.92741 136.752 3.95847 136.539 4.03694C136.327 4.11541 136.134 4.2394 135.974 4.40023C135.814 4.56106 135.692 4.75485 135.615 4.96804C135.538 5.18123 135.508 5.40867 135.528 5.63445V9.52423H134.214L134.214 0.26416Z" fill="black"/>
<path d="M147.606 7.72637C147.428 8.33507 147.041 8.86159 146.513 9.21384C145.986 9.56608 145.351 9.7216 144.72 9.6532C144.281 9.66479 143.845 9.58074 143.442 9.40691C143.039 9.23308 142.679 8.97362 142.386 8.64654C142.093 8.31946 141.875 7.9326 141.747 7.51281C141.619 7.09301 141.584 6.65035 141.644 6.21553C141.585 5.77937 141.621 5.33575 141.749 4.9147C141.877 4.49365 142.094 4.105 142.385 3.77505C142.676 3.44511 143.035 3.18158 143.437 3.00231C143.839 2.82303 144.274 2.7322 144.714 2.73595C146.568 2.73595 147.686 4.00204 147.686 6.09345V6.55209H142.983V6.62575C142.962 6.87016 142.993 7.11617 143.073 7.34802C143.153 7.57986 143.28 7.79242 143.447 7.97206C143.614 8.1517 143.817 8.29447 144.043 8.39119C144.268 8.48792 144.511 8.53648 144.756 8.53375C145.071 8.5715 145.389 8.51488 145.671 8.37111C145.954 8.22733 146.187 8.00289 146.341 7.72633L147.606 7.72637ZM142.983 5.57999H146.347C146.363 5.35646 146.333 5.13193 146.257 4.92084C146.182 4.70975 146.063 4.51676 145.909 4.35428C145.755 4.19179 145.568 4.0634 145.361 3.97735C145.154 3.89131 144.931 3.84951 144.707 3.85465C144.48 3.85179 144.254 3.89447 144.044 3.98018C143.833 4.06588 143.642 4.19288 143.481 4.35367C143.32 4.51447 143.193 4.70581 143.108 4.91642C143.022 5.12704 142.98 5.35266 142.983 5.57999H142.983Z" fill="black"/>
</svg>