<svg width="48" height="48" viewBox="0 0 48 48" fill="none" xmlns="http://www.w3.org/2000/svg"><path d="M12 2C8.68629 2 5.99999 4.6863 6 8.00002L6.00008 38.8537C6.00008 41.5767 7.85293 44.0494 10.6288 44.6213C19.552 46.4596 28.4479 46.4596 37.3711 44.6213C40.147 44.0494 41.9998 41.5767 41.9998 38.8536V16.8503C41.9998 15.2349 41.3485 13.6878 40.1931 12.5588L31.1355 3.70853C30.0145 2.61322 28.5095 2 26.9422 2H12Z" fill="currentColor"></path><path fill-rule="evenodd" clip-rule="evenodd" d="M12.1562 32.7119V34.5752C12.1562 35.3669 11.5144 36.0088 10.7227 36.0088C9.9309 36.0088 9.28906 35.3669 9.28906 34.5752V26.1689C9.28906 25.3772 9.9309 24.7354 10.7227 24.7354H14.1484C14.987 24.7354 15.7161 24.902 16.3359 25.2354C16.9557 25.5635 17.4349 26.027 17.7734 26.626C18.1172 27.2197 18.2891 27.9202 18.2891 28.7275V28.7432C18.2891 29.5452 18.1172 30.2458 17.7734 30.8447C17.4349 31.4385 16.9557 31.8994 16.3359 32.2275C15.7161 32.5505 14.987 32.7119 14.1484 32.7119H12.1562ZM12.1562 30.54H13.4531C14.0625 30.54 14.5365 30.3864 14.875 30.0791C15.2188 29.7718 15.3906 29.3265 15.3906 28.7432V28.7275C15.3906 28.139 15.2188 27.6937 14.875 27.3916C14.5365 27.0895 14.0625 26.9385 13.4531 26.9385H12.1562V30.54Z" fill="#9899A6"></path><path fill-rule="evenodd" clip-rule="evenodd" d="M22.0784 36.0088C20.9739 36.0088 20.0784 35.1134 20.0784 34.0088V26.7354C20.0784 25.6308 20.9739 24.7354 22.0784 24.7354H24.8128C25.9378 24.7354 26.8909 24.9515 27.6722 25.3838C28.4586 25.8109 29.0576 26.4359 29.4691 27.2588C29.8805 28.0817 30.0862 29.0791 30.0862 30.251V30.2666C30.0862 31.4958 29.8831 32.54 29.4769 33.3994C29.0706 34.2536 28.4743 34.902 27.6878 35.3447C26.9066 35.7874 25.9482 36.0088 24.8128 36.0088H22.0784ZM22.9456 33.7041H24.2972C24.917 33.7041 25.4378 33.5765 25.8597 33.3213C26.2868 33.0661 26.6097 32.6885 26.8284 32.1885C27.0524 31.6833 27.1644 31.0609 27.1644 30.3213V30.3057C27.1644 29.6077 27.0498 29.0166 26.8206 28.5322C26.5967 28.0426 26.2685 27.6729 25.8362 27.4229C25.4092 27.1676 24.8961 27.04 24.2972 27.04H22.9456V33.7041Z" fill="#9899A6"></path><path d="M33.3326 36.0088C32.5409 36.0088 31.899 35.3669 31.899 34.5752V26.7354C31.899 25.6308 32.7945 24.7354 33.899 24.7354H38.4186C39.055 24.7354 39.5709 25.2513 39.5709 25.8877C39.5709 26.5241 39.055 27.04 38.4186 27.04H34.7662V29.6104H38.0358C38.642 29.6104 39.1334 30.1018 39.1334 30.708C39.1334 31.3142 38.642 31.8057 38.0358 31.8057H34.7662V34.5752C34.7662 35.3669 34.1244 36.0088 33.3326 36.0088Z" fill="#9899A6"></path><path d="M28 2.09375V11.0281C28 13.7739 30.1868 15.9998 32.8845 15.9998H41.9393C41.7532 14.6996 41.1437 13.4875 40.1931 12.5586L31.1355 3.70833C30.2699 2.86258 29.1754 2.30427 28 2.09375Z" fill="#9899A6"></path></svg>