<svg width="151" height="26" viewBox="0 0 151 26" fill="none" xmlns="http://www.w3.org/2000/svg" class="mb-8"><path fill-rule="evenodd" clip-rule="evenodd" d="M9.75062 7.56459C10.8423 5.96933 11.789 5.18054 13.2064 5.61871C14.064 5.88386 14.4161 6.97874 14.064 8.35256C13.445 10.7681 13.2064 12.1547 13.2064 13.805C15.3836 9.24148 19.4085 3.17612 21.1528 1.13607C22.3585 -0.273981 24.0867 -0.094163 24.7373 0.220355C25.7944 0.731395 25.8502 1.8395 25.4853 2.89922C22.9609 10.2309 22.8731 14.1466 22.5631 17.9507C24.132 13.7317 26.0394 9.76309 28.3429 6.96806C29.3134 5.62748 31.0144 5.20665 32.0889 5.64214C33.1633 6.07763 33.4082 7.11954 33.1633 8.42519C32.5247 11.83 32.2078 13.4258 32.2078 14.7448C33.3745 13.8525 34.3035 13.0985 36.4274 12.9262C38.5513 12.7539 42.9405 13.5995 42.9405 13.5995C42.9405 13.5995 40.4066 14.03 39.0683 14.3582C36.3246 15.031 35.3664 15.8179 33.5903 18.419C33.0742 19.1749 32.2078 19.7552 31.2315 19.6814C30.2553 19.6076 29.5998 18.9934 29.3134 18.164C28.9154 17.0113 28.797 15.287 29.3134 11.5556C26.783 15.4054 25.4853 20.6349 23.7515 24.1029C23.3082 24.9896 22.5512 26 21.5251 26C20.4991 26 19.1686 25.602 18.9959 22.5536C18.5534 14.7448 20.0286 8.53078 20.0286 8.53078C17.1553 13.0866 16.2376 15.7422 15.2382 17.127C14.2387 18.5118 13.2689 19.711 12.0892 19.6814C10.9095 19.6517 10.223 18.3329 10.0737 17.127C9.92442 15.9211 9.88147 14.3809 10.3175 11.5556C9.18254 12.6905 8.18462 13.4591 6.39745 13.9404C4.61028 14.4217 2.47619 14.1154 0 13.5995C2.47619 13.5995 6.64322 12.1055 9.75062 7.56459Z" fill="#2F43FA"></path><path d="M141.667 8.98206L145.267 19.1787L143.791 21.9738L138.782 8.98206H141.667ZM139.073 25.1491V22.8906H140.705C141.063 22.8906 141.376 22.8459 141.644 22.7564C141.913 22.6819 142.151 22.5328 142.36 22.3092C142.583 22.0856 142.77 21.7576 142.919 21.3253L147.503 8.98206H150.32L144.909 22.4881C144.506 23.5018 144 24.2397 143.388 24.7018C142.777 25.164 142.017 25.395 141.108 25.395C140.72 25.395 140.355 25.3727 140.012 25.3279C139.684 25.2981 139.371 25.2385 139.073 25.1491Z" fill="black"></path><path d="M131.361 8.98209H138.293V11.2629H131.361V8.98209ZM138.315 3.50365V5.82919C138.166 5.82919 138.01 5.82919 137.846 5.82919C137.697 5.82919 137.54 5.82919 137.376 5.82919C136.691 5.82919 136.228 5.99317 135.99 6.32114C135.766 6.6491 135.654 7.08886 135.654 7.64043V20.0284H132.949V7.64043C132.949 6.62674 133.113 5.81429 133.441 5.20309C133.769 4.57698 134.231 4.1223 134.827 3.83906C135.423 3.54092 136.117 3.39185 136.907 3.39185C137.13 3.39185 137.361 3.3993 137.6 3.41421C137.853 3.42911 138.092 3.45893 138.315 3.50365Z" fill="black"></path><path d="M126.91 20.0283V8.98201H129.638V20.0283H126.91ZM128.252 6.76827C127.79 6.76827 127.395 6.61174 127.067 6.29869C126.754 5.97073 126.597 5.57568 126.597 5.11355C126.597 4.65143 126.754 4.26384 127.067 3.95078C127.395 3.63773 127.79 3.4812 128.252 3.4812C128.714 3.4812 129.102 3.63773 129.415 3.95078C129.743 4.26384 129.907 4.65143 129.907 5.11355C129.907 5.57568 129.743 5.97073 129.415 6.29869C129.102 6.61174 128.714 6.76827 128.252 6.76827Z" fill="black"></path><path d="M116.47 20.0284H113.742V3.39185H116.493V10.4132C116.836 9.87653 117.313 9.45167 117.924 9.13862C118.55 8.81066 119.266 8.64668 120.071 8.64668C121.427 8.64668 122.456 9.05663 123.156 9.87653C123.872 10.6964 124.23 11.8145 124.23 13.2307V20.0284H121.502V13.8792C121.502 13.253 121.405 12.7387 121.211 12.3362C121.017 11.9337 120.749 11.6356 120.406 11.4418C120.063 11.2331 119.661 11.1287 119.199 11.1287C118.632 11.1287 118.14 11.2555 117.723 11.5089C117.32 11.7474 117.007 12.0828 116.784 12.5151C116.575 12.9474 116.47 13.4394 116.47 13.991V20.0284Z" fill="black"></path><path d="M100.8 14.4828C100.8 13.3499 101.031 12.3436 101.493 11.4641C101.97 10.5846 102.619 9.89882 103.438 9.40688C104.273 8.90003 105.235 8.64661 106.323 8.64661C107.829 8.64661 109.059 9.04165 110.013 9.83174C110.982 10.6069 111.541 11.6579 111.69 12.9846H108.962C108.798 12.3585 108.492 11.8889 108.045 11.5759C107.613 11.2479 107.068 11.084 106.412 11.084C105.846 11.084 105.339 11.2256 104.892 11.5088C104.46 11.7771 104.124 12.1647 103.886 12.6716C103.647 13.1784 103.528 13.7822 103.528 14.4828C103.528 15.1835 103.64 15.7872 103.863 16.2941C104.087 16.8009 104.407 17.196 104.825 17.4792C105.257 17.7475 105.764 17.8817 106.345 17.8817C107.031 17.8817 107.598 17.7177 108.045 17.3898C108.507 17.0618 108.813 16.5922 108.962 15.981H111.712C111.593 16.8456 111.287 17.6059 110.795 18.2618C110.318 18.9028 109.7 19.4097 108.939 19.7824C108.179 20.1402 107.314 20.319 106.345 20.319C105.227 20.319 104.251 20.0805 103.416 19.6035C102.581 19.1115 101.933 18.4333 101.471 17.5686C101.023 16.6891 100.8 15.6605 100.8 14.4828Z" fill="black"></path><path d="M93.9432 20.319C92.8549 20.319 91.8859 20.0731 91.0362 19.5811C90.2014 19.0743 89.5455 18.3885 89.0685 17.5239C88.5914 16.6444 88.3529 15.6381 88.3529 14.5052C88.3529 13.3573 88.584 12.3436 89.0461 11.4641C89.5082 10.5846 90.1567 9.89882 90.9915 9.40688C91.8263 8.90003 92.7804 8.64661 93.8537 8.64661C94.9718 8.64661 95.9333 8.88512 96.7383 9.36216C97.5433 9.82428 98.1619 10.4728 98.5942 11.3076C99.0415 12.1424 99.2651 13.1412 99.2651 14.3039V15.1313L89.784 15.1537L89.8287 13.4095H96.5594C96.5594 12.6492 96.3134 12.038 95.8215 11.5759C95.3444 11.1138 94.696 10.8827 93.8761 10.8827C93.2351 10.8827 92.6909 11.0169 92.2437 11.2852C91.8114 11.5535 91.4834 11.956 91.2598 12.4927C91.0362 13.0294 90.9244 13.6853 90.9244 14.4605C90.9244 15.653 91.1778 16.5549 91.6847 17.1661C92.2064 17.7773 92.9742 18.0829 93.9879 18.0829C94.7332 18.0829 95.3444 17.9413 95.8215 17.6581C96.3134 17.3748 96.6339 16.9723 96.783 16.4506H99.3098C99.0713 17.6581 98.475 18.6047 97.5209 19.2904C96.5817 19.9762 95.3892 20.319 93.9432 20.319Z" fill="black"></path><path d="M81.4961 20.319C80.4079 20.319 79.4389 20.0731 78.5892 19.5811C77.7544 19.0743 77.0985 18.3885 76.6214 17.5239C76.1444 16.6444 75.9059 15.6381 75.9059 14.5052C75.9059 13.3573 76.1369 12.3436 76.5991 11.4641C77.0612 10.5846 77.7097 9.89882 78.5445 9.40688C79.3793 8.90003 80.3334 8.64661 81.4067 8.64661C82.5247 8.64661 83.4863 8.88512 84.2913 9.36216C85.0962 9.82428 85.7149 10.4728 86.1472 11.3076C86.5944 12.1424 86.818 13.1412 86.818 14.3039V15.1313L77.337 15.1537L77.3817 13.4095H84.1124C84.1124 12.6492 83.8664 12.038 83.3745 11.5759C82.8974 11.1138 82.249 10.8827 81.429 10.8827C80.788 10.8827 80.2439 11.0169 79.7967 11.2852C79.3644 11.5535 79.0364 11.956 78.8128 12.4927C78.5892 13.0294 78.4774 13.6853 78.4774 14.4605C78.4774 15.653 78.7308 16.5549 79.2377 17.1661C79.7594 17.7773 80.5272 18.0829 81.5409 18.0829C82.2862 18.0829 82.8974 17.9413 83.3745 17.6581C83.8664 17.3748 84.1869 16.9723 84.336 16.4506H86.8628C86.6243 17.6581 86.028 18.6047 85.0739 19.2904C84.1347 19.9762 82.9421 20.319 81.4961 20.319Z" fill="black"></path><path d="M62.7097 25.149V8.98202H65.2364L65.4153 10.6591C65.7433 10.0181 66.2501 9.52614 66.9359 9.18327C67.6216 8.82549 68.3744 8.64661 69.1943 8.64661C70.2528 8.64661 71.1621 8.88512 71.9224 9.36216C72.6976 9.83919 73.3013 10.5026 73.7336 11.3523C74.1659 12.202 74.3821 13.2082 74.3821 14.371C74.3821 15.5189 74.1808 16.54 73.7783 17.4345C73.3758 18.3289 72.787 19.037 72.0118 19.5588C71.2516 20.0656 70.3198 20.319 69.2167 20.319C68.3968 20.319 67.644 20.1625 66.9582 19.8495C66.2874 19.5364 65.7806 19.1041 65.4377 18.5525V25.149H62.7097ZM65.4601 14.5052C65.4601 15.1611 65.5868 15.7425 65.8402 16.2493C66.0936 16.7562 66.4514 17.1587 66.9135 17.4568C67.3906 17.7401 67.9421 17.8817 68.5682 17.8817C69.2092 17.8817 69.7608 17.7401 70.2229 17.4568C70.6851 17.1587 71.0354 16.7562 71.2739 16.2493C71.5124 15.7425 71.6317 15.1611 71.6317 14.5052C71.6317 13.8493 71.5124 13.2679 71.2739 12.761C71.0354 12.2542 70.6851 11.8591 70.2229 11.5759C69.7608 11.2777 69.2092 11.1287 68.5682 11.1287C67.9421 11.1287 67.3906 11.2703 66.9135 11.5535C66.4514 11.8368 66.0936 12.2318 65.8402 12.7387C65.5868 13.2455 65.4601 13.8344 65.4601 14.5052Z" fill="black"></path><path d="M48.9399 8.24418C48.9399 7.29011 49.1859 6.44785 49.6778 5.71739C50.1698 4.98693 50.8481 4.42045 51.7127 4.01795C52.5922 3.60055 53.6059 3.39185 54.7538 3.39185C55.8569 3.39185 56.811 3.58564 57.616 3.97323C58.4359 4.36082 59.0694 4.91239 59.5167 5.62794C59.9788 6.3435 60.2248 7.19321 60.2546 8.1771H57.3924C57.3626 7.47645 57.1091 6.93234 56.6321 6.54474C56.1551 6.14225 55.5141 5.941 54.7091 5.941C53.8295 5.941 53.1214 6.14225 52.5848 6.54474C52.063 6.93234 51.8021 7.469 51.8021 8.15474C51.8021 8.73612 51.9587 9.19825 52.2717 9.54112C52.5997 9.86908 53.1065 10.1151 53.7923 10.279L56.3638 10.8604C57.7651 11.1586 58.8086 11.6729 59.4943 12.4033C60.18 13.1189 60.5229 14.0879 60.5229 15.3103C60.5229 16.309 60.2769 17.1886 59.785 17.9489C59.2931 18.7091 58.5924 19.298 57.6831 19.7154C56.7886 20.1179 55.7377 20.3191 54.5302 20.3191C53.3823 20.3191 52.3761 20.1253 51.5114 19.7377C50.6468 19.3352 49.9685 18.7762 49.4766 18.0607C48.9995 17.3451 48.7461 16.5028 48.7163 15.5339H51.5785C51.5934 16.2196 51.8618 16.7637 52.3835 17.1662C52.9202 17.5538 53.6432 17.7476 54.5525 17.7476C55.5066 17.7476 56.2594 17.5538 56.811 17.1662C57.3775 16.7637 57.6607 16.2345 57.6607 15.5786C57.6607 15.0121 57.5116 14.5649 57.2135 14.2369C56.9153 13.8941 56.4309 13.6555 55.76 13.5214L53.1661 12.94C51.7798 12.6418 50.7288 12.1052 50.0132 11.33C49.2977 10.5399 48.9399 9.5113 48.9399 8.24418Z" fill="black"></path></svg>