<svg xmlns="http://www.w3.org/2000/svg" width="185" height="25" viewBox="0 0 185 25" fill="none">
<path d="M124.923 6.48989C124.923 6.0435 124.923 5.82031 124.934 5.63183C125.124 2.61025 127.528 0.201959 130.544 0.0118577C130.732 0 130.956 0 131.401 0H178.522C178.967 0 179.19 0 179.378 0.0118577C182.394 0.201959 184.798 2.61025 184.988 5.63183C185 5.82031 185 6.0435 185 6.48989V18.3481C185 18.7945 185 19.0176 184.988 19.2061C184.798 22.2277 182.394 24.636 179.378 24.8261C179.19 24.838 178.967 24.838 178.522 24.838H131.401C130.956 24.838 130.732 24.838 130.544 24.8261C127.528 24.636 125.124 22.2277 124.934 19.2061C124.923 19.0176 124.923 18.7945 124.923 18.3481V6.48989Z" fill="#4756F7"/>
<path d="M170.075 13.6436C170.075 10.9166 172.022 9.00214 174.673 9.00214C177.305 9.00214 179.252 10.9166 179.252 13.6436C179.252 16.3707 177.305 18.285 174.673 18.285C172.022 18.285 170.075 16.3707 170.075 13.6436ZM171.788 13.6436C171.788 15.4858 172.96 16.768 174.673 16.768C176.367 16.768 177.557 15.4858 177.557 13.6436C177.557 11.8015 176.367 10.5192 174.673 10.5192C172.96 10.5192 171.788 11.8015 171.788 13.6436Z" fill="white"/>
<path d="M167.687 7.14199C167.074 7.14199 166.57 6.63631 166.57 6.02226C166.57 5.39016 167.074 4.90254 167.687 4.90254C168.3 4.90254 168.805 5.39016 168.805 6.02226C168.805 6.63631 168.3 7.14199 167.687 7.14199ZM166.858 18.0683V9.23697H168.552V18.0683H166.858Z" fill="white"/>
<path d="M159.942 18.285C157.382 18.285 155.832 16.3707 155.832 13.6797C155.832 10.9707 157.4 8.98407 160.014 8.98407C161.366 8.98407 162.502 9.58008 163.097 10.6637V4.7761H164.774V18.0683H163.26L163.115 16.4609C162.538 17.671 161.348 18.285 159.942 18.285ZM160.285 16.7499C162.015 16.7499 163.079 15.4676 163.079 13.6256C163.079 11.8195 162.015 10.5192 160.285 10.5192C158.554 10.5192 157.544 11.8195 157.544 13.6256C157.544 15.4496 158.554 16.7499 160.285 16.7499Z" fill="white"/>
<path d="M152.81 9.23697H154.486V18.0683H152.972L152.792 16.7318C152.287 17.653 151.115 18.285 149.818 18.285C147.762 18.285 146.609 16.8944 146.609 14.7272V9.23697H148.303V14.1673C148.303 16.0636 149.114 16.7861 150.412 16.7861C151.962 16.7861 152.81 15.7927 152.81 13.8964V9.23697Z" fill="white"/>
<path d="M143.826 18.0683H142.131V10.6637H140.4V9.23697H142.131V6.47375H143.826V9.23697H145.556V10.6637H143.826V18.0683Z" fill="white"/>
<path d="M130.825 8.53262C130.825 6.29315 132.627 4.7761 135.313 4.7761C137.802 4.7761 139.406 6.16673 139.55 8.42421H137.765C137.676 7.12392 136.756 6.3654 135.296 6.3654C133.655 6.3654 132.592 7.19613 132.592 8.47842C132.592 9.52587 133.187 10.158 134.412 10.447L136.558 10.9526C138.685 11.4403 139.767 12.5961 139.767 14.4382C139.767 16.7861 137.946 18.285 135.169 18.285C132.519 18.285 130.752 16.8944 130.645 14.6549H132.447C132.483 15.9011 133.529 16.6958 135.169 16.6958C136.9 16.6958 138 15.883 138 14.5827C138 13.5533 137.441 12.9031 136.197 12.6142L134.052 12.1266C131.925 11.6389 130.825 10.4108 130.825 8.53262Z" fill="white"/>
<path fill-rule="evenodd" clip-rule="evenodd" d="M7.87641 8.03215C8.7582 6.74121 9.52294 6.1029 10.6679 6.45749C11.3607 6.67205 11.6451 7.55805 11.3607 8.66976C10.8606 10.6245 10.6679 11.7466 10.6679 13.082C12.4266 9.38914 15.6779 4.48089 17.0869 2.83004C18.0608 1.68899 19.4568 1.83451 19.9824 2.08902C20.8362 2.50257 20.8814 3.39927 20.5866 4.25682C18.5474 10.1898 18.4764 13.3584 18.2261 16.4368C19.4934 13.0227 21.0342 9.8112 22.895 7.54942C23.6789 6.46459 25.0529 6.12404 25.9208 6.47645C26.7888 6.82882 26.9866 7.67199 26.7888 8.72855C26.2729 11.4838 26.0169 12.7752 26.0169 13.8425C26.9594 13.1204 27.7098 12.5103 29.4254 12.3708C31.1411 12.2314 34.6867 12.9157 34.6867 12.9157C34.6867 12.9157 32.6398 13.2641 31.5587 13.5297C29.3424 14.0741 28.5684 14.7108 27.1337 16.8158C26.7168 17.4274 26.0169 17.897 25.2283 17.8373C24.4397 17.7775 23.9102 17.2806 23.6789 16.6094C23.3574 15.6766 23.2618 14.2813 23.6789 11.2617C21.6349 14.3771 20.5866 18.6089 19.1861 21.4153C18.828 22.1328 18.2165 22.9504 17.3876 22.9504C16.5588 22.9504 15.4841 22.6284 15.3445 20.1616C14.9871 13.8425 16.1787 8.81397 16.1787 8.81397C13.8578 12.5007 13.1165 14.6496 12.3092 15.7702C11.5018 16.8908 10.7184 17.8613 9.76543 17.8373C8.81251 17.8133 8.25794 16.7461 8.13734 15.7702C8.0168 14.7944 7.98208 13.548 8.33426 11.2617C7.41749 12.1801 6.6114 12.8021 5.16776 13.1916C3.72411 13.5811 2.00022 13.3331 0 12.9157C2.00022 12.9157 5.36628 11.7067 7.87641 8.03215Z" fill="white"/>
<path d="M114.436 9.17939L117.344 17.4307L116.152 19.6926L112.106 9.17939H114.436ZM112.341 22.2621V20.4345H113.659C113.948 20.4345 114.201 20.3983 114.418 20.3259C114.634 20.2656 114.828 20.1449 114.996 19.964C115.176 19.7831 115.327 19.5176 115.447 19.1678L119.15 9.17939H121.426L117.055 20.1088C116.73 20.929 116.32 21.5262 115.827 21.9002C115.333 22.2741 114.719 22.4611 113.984 22.4611C113.671 22.4611 113.376 22.443 113.099 22.4068C112.834 22.3827 112.582 22.3344 112.341 22.2621Z" fill="white"/>
<path d="M106.111 9.17939H111.711V11.025H106.111V9.17939ZM111.729 4.74609V6.62797C111.609 6.62797 111.482 6.62797 111.349 6.62797C111.229 6.62797 111.102 6.62797 110.971 6.62797C110.417 6.62797 110.043 6.76066 109.851 7.0261C109.67 7.29147 109.579 7.64731 109.579 8.09364V18.1183H107.393V8.09364C107.393 7.27333 107.526 6.61591 107.791 6.12131C108.056 5.61465 108.429 5.24672 108.911 5.01752C109.393 4.77625 109.953 4.65562 110.591 4.65562C110.771 4.65562 110.958 4.66165 111.151 4.67372C111.355 4.68578 111.548 4.7099 111.729 4.74609Z" fill="white"/>
<path d="M102.516 18.1183V9.17939H104.72V18.1183H102.516ZM103.6 7.38795C103.226 7.38795 102.907 7.26133 102.643 7.00796C102.39 6.74259 102.263 6.4229 102.263 6.04893C102.263 5.67498 102.39 5.36133 102.643 5.108C102.907 4.85467 103.226 4.728 103.6 4.728C103.973 4.728 104.286 4.85467 104.539 5.108C104.804 5.36133 104.936 5.67498 104.936 6.04893C104.936 6.4229 104.804 6.74259 104.539 7.00796C104.286 7.26133 103.973 7.38795 103.6 7.38795Z" fill="white"/>
<path d="M94.0833 18.1183H91.8791V4.65562H94.1008V10.3374C94.3781 9.90316 94.7637 9.55938 95.257 9.30601C95.7631 9.04064 96.3406 8.90796 96.9914 8.90796C98.087 8.90796 98.9175 9.23967 99.4835 9.90316C100.062 10.5667 100.351 11.4714 100.351 12.6174V18.1183H98.1469V13.1421C98.1469 12.6355 98.0689 12.2193 97.912 11.8936C97.7559 11.5679 97.5392 11.3266 97.2619 11.1698C96.9853 11.0009 96.6602 10.9165 96.2867 10.9165C95.8291 10.9165 95.432 11.019 95.0948 11.2241C94.7697 11.4171 94.5167 11.6885 94.3357 12.0384C94.1674 12.3882 94.0833 12.7863 94.0833 13.2326V18.1183Z" fill="white"/>
<path d="M81.4246 13.6307C81.4246 12.7139 81.611 11.8996 81.9845 11.1879C82.3701 10.4762 82.8937 9.92123 83.556 9.52317C84.2303 9.11305 85.007 8.90796 85.886 8.90796C87.1021 8.90796 88.0955 9.2276 88.8667 9.86695C89.6495 10.4942 90.1004 11.3448 90.2208 12.4184H88.0174C87.8848 11.9117 87.6378 11.5317 87.2771 11.2784C86.9278 11.013 86.4883 10.8803 85.958 10.8803C85.501 10.8803 85.0911 10.9949 84.7297 11.2241C84.3811 11.4412 84.1099 11.7549 83.9174 12.1651C83.7242 12.5752 83.628 13.0637 83.628 13.6307C83.628 14.1977 83.7182 14.6863 83.8992 15.0964C84.0796 15.5066 84.3387 15.8262 84.6759 16.0555C85.0252 16.2726 85.4344 16.3812 85.9041 16.3812C86.458 16.3812 86.9157 16.2485 87.2771 15.9831C87.6499 15.7177 87.8969 15.3377 88.0174 14.8431H90.239C90.1428 15.5427 89.8958 16.158 89.4987 16.6888C89.1131 17.2075 88.6137 17.6177 87.9992 17.9193C87.3854 18.2088 86.6868 18.3535 85.9041 18.3535C85.0009 18.3535 84.2122 18.1605 83.5378 17.7745C82.8635 17.3764 82.3399 16.8275 81.9663 16.1278C81.6049 15.4161 81.4246 14.5837 81.4246 13.6307Z" fill="white"/>
<path d="M75.8856 18.3535C75.0067 18.3535 74.224 18.1545 73.5375 17.7564C72.8631 17.3463 72.3335 16.7913 71.9478 16.0917C71.5629 15.3799 71.3697 14.5657 71.3697 13.6488C71.3697 12.7199 71.5568 11.8996 71.9297 11.1879C72.3032 10.4762 72.8268 9.92123 73.5012 9.52317C74.1755 9.11305 74.9461 8.90796 75.8136 8.90796C76.7168 8.90796 77.4935 9.10098 78.1436 9.48697C78.7937 9.86095 79.2938 10.3857 79.6431 11.0613C80.0038 11.7368 80.1849 12.5451 80.1849 13.486V14.1555L72.526 14.1736L72.5623 12.7622H77.9989C77.9989 12.1469 77.8004 11.6523 77.4033 11.2784C77.0177 10.9044 76.4941 10.7175 75.8318 10.7175C75.3136 10.7175 74.8741 10.826 74.5127 11.0431C74.1634 11.2603 73.8989 11.586 73.7179 12.0203C73.5375 12.4546 73.4473 12.9853 73.4473 13.6126C73.4473 14.5777 73.6519 15.3075 74.0611 15.8021C74.4831 16.2967 75.1029 16.544 75.922 16.544C76.5237 16.544 77.0177 16.4294 77.4033 16.2002C77.8004 15.971 78.0595 15.6453 78.18 15.2231H80.2205C80.028 16.2002 79.5462 16.9663 78.7756 17.5211C78.0171 18.0761 77.054 18.3535 75.8856 18.3535Z" fill="white"/>
<path d="M65.8312 18.3535C64.9521 18.3535 64.1694 18.1545 63.483 17.7564C62.8087 17.3463 62.2789 16.7913 61.8935 16.0917C61.5082 15.3799 61.3155 14.5657 61.3155 13.6488C61.3155 12.7199 61.5021 11.8996 61.8755 11.1879C62.2488 10.4762 62.7726 9.92123 63.4469 9.52317C64.1212 9.11305 64.892 8.90796 65.7589 8.90796C66.6621 8.90796 67.4387 9.10098 68.0888 9.48697C68.7396 9.86095 69.239 10.3857 69.5883 11.0613C69.9497 11.7368 70.13 12.5451 70.13 13.486V14.1555L62.4715 14.1736L62.5076 12.7622H67.9448C67.9448 12.1469 67.7456 11.6523 67.3485 11.2784C66.9632 10.9044 66.4393 10.7175 65.7771 10.7175C65.2592 10.7175 64.8197 10.826 64.4584 11.0431C64.1092 11.2603 63.8443 11.586 63.6637 12.0203C63.483 12.4546 63.3927 12.9853 63.3927 13.6126C63.3927 14.5777 63.5974 15.3075 64.0069 15.8021C64.4283 16.2967 65.0485 16.544 65.8673 16.544C66.4695 16.544 66.9632 16.4294 67.3485 16.2002C67.7456 15.971 68.0047 15.6453 68.1251 15.2231H70.1664C69.9739 16.2002 69.492 16.9663 68.7214 17.5211C67.9629 18.0761 66.9992 18.3535 65.8312 18.3535Z" fill="white"/>
<path d="M50.6559 22.2621V9.17939H52.697L52.8415 10.5365C53.1064 10.0178 53.5158 9.61965 54.0698 9.34222C54.6237 9.05271 55.2318 8.90796 55.8941 8.90796C56.7491 8.90796 57.4836 9.10098 58.0978 9.48697C58.7239 9.87302 59.2117 10.4098 59.5608 11.0975C59.9101 11.785 60.0847 12.5993 60.0847 13.5403C60.0847 14.4691 59.9221 15.2955 59.597 16.0193C59.2718 16.743 58.7962 17.3161 58.17 17.7383C57.5559 18.1484 56.8033 18.3535 55.9122 18.3535C55.2498 18.3535 54.6418 18.2268 54.0878 17.9735C53.5459 17.7202 53.1365 17.3704 52.8596 16.924V22.2621H50.6559ZM52.8776 13.6488C52.8776 14.1796 52.98 14.6501 53.1847 15.0602C53.3894 15.4704 53.6784 15.7961 54.0517 16.0373C54.437 16.2666 54.8826 16.3812 55.3884 16.3812C55.9062 16.3812 56.3517 16.2666 56.725 16.0373C57.0983 15.7961 57.3813 15.4704 57.574 15.0602C57.7666 14.6501 57.863 14.1796 57.863 13.6488C57.863 13.1181 57.7666 12.6475 57.574 12.2374C57.3813 11.8273 57.0983 11.5076 56.725 11.2784C56.3517 11.0371 55.9062 10.9165 55.3884 10.9165C54.8826 10.9165 54.437 11.0311 54.0517 11.2603C53.6784 11.4895 53.3894 11.8092 53.1847 12.2193C52.98 12.6295 52.8776 13.106 52.8776 13.6488Z" fill="white"/>
<path d="M39.5329 8.58224C39.5329 7.8102 39.7316 7.12858 40.1289 6.53749C40.5263 5.94639 41.0742 5.48798 41.7727 5.16228C42.4831 4.8245 43.302 4.65561 44.2292 4.65561C45.1203 4.65561 45.891 4.81244 46.5413 5.12609C47.2036 5.43974 47.7153 5.88608 48.0766 6.46512C48.4499 7.04417 48.6486 7.73179 48.6727 8.52797H46.3606C46.3365 7.96096 46.1319 7.52063 45.7465 7.20699C45.3611 6.88128 44.8434 6.71845 44.1931 6.71845C43.4826 6.71845 42.9106 6.88128 42.4771 7.20699C42.0556 7.52063 41.8449 7.95496 41.8449 8.50983C41.8449 8.9803 41.9713 9.35428 42.2242 9.63172C42.4892 9.89716 42.8986 10.0962 43.4525 10.2289L45.5297 10.6993C46.6616 10.9406 47.5046 11.3568 48.0586 11.9479C48.6124 12.5269 48.8894 13.311 48.8894 14.3002C48.8894 15.1085 48.6907 15.8202 48.2934 16.4355C47.896 17.0507 47.33 17.5272 46.5954 17.8649C45.8729 18.1906 45.0239 18.3535 44.0486 18.3535C43.1213 18.3535 42.3085 18.1967 41.6101 17.8831C40.9117 17.5574 40.3637 17.105 39.9664 16.5259C39.581 15.9469 39.3763 15.2653 39.3523 14.4812H41.6643C41.6763 15.0361 41.8931 15.4764 42.3145 15.8021C42.7481 16.1158 43.3321 16.2726 44.0666 16.2726C44.8373 16.2726 45.4454 16.1158 45.891 15.8021C46.3486 15.4764 46.5774 15.0482 46.5774 14.5174C46.5774 14.059 46.4569 13.6971 46.2161 13.4317C45.9752 13.1542 45.5839 12.9612 45.042 12.8526L42.9467 12.3822C41.8269 12.1409 40.9779 11.7066 40.3999 11.0793C39.8219 10.44 39.5329 9.60759 39.5329 8.58224Z" fill="white"/>
</svg>