<svg width="48" height="48" viewBox="0 0 48 48" fill="none" xmlns="http://www.w3.org/2000/svg"><path d="M12 2C8.68629 2 5.99999 4.6863 6 8.00002L6.00008 38.8537C6.00008 41.5767 7.85293 44.0494 10.6288 44.6213C19.552 46.4596 28.4479 46.4596 37.3711 44.6213C40.147 44.0494 41.9998 41.5767 41.9998 38.8536V16.8503C41.9998 15.2349 41.3485 13.6878 40.1931 12.5588L31.1355 3.70853C30.0145 2.61322 28.5095 2 26.9422 2H12Z" fill="currentColor"></path><path d="M12.2556 34.7789C12.2556 35.54 12.8726 36.157 13.6337 36.157C14.3948 36.157 15.0119 35.54 15.0119 34.7789V27.5116H16.8983C17.5118 27.5116 18.0091 27.0143 18.0091 26.4008C18.0091 25.7874 17.5118 25.29 16.8983 25.29H10.3691C9.75562 25.29 9.2583 25.7874 9.2583 26.4008C9.2583 27.0143 9.75562 27.5116 10.3691 27.5116H12.2556V34.7789Z" fill="#9899A6"></path><path d="M21.0516 36.157C20.0754 36.157 19.475 35.0892 19.9823 34.2552L22.1466 30.6972V30.652L20.1051 27.3485C19.5496 26.4496 20.1962 25.29 21.2528 25.29C21.7478 25.29 22.2031 25.5612 22.439 25.9964L24.0519 28.9726H24.1347L25.7578 25.9549C25.978 25.5454 26.4053 25.29 26.8702 25.29C27.8688 25.29 28.4726 26.3942 27.9336 27.2349L25.7237 30.6821V30.7198L27.8897 34.1568C28.4372 35.0256 27.8129 36.157 26.786 36.157C26.3278 36.157 25.9033 35.9167 25.6674 35.524L23.9314 32.6326H23.8636L22.1265 35.5464C21.9008 35.9251 21.4924 36.157 21.0516 36.157Z" fill="#9899A6"></path><path d="M34.3663 36.157C33.6052 36.157 32.9882 35.54 32.9882 34.7789V27.5116H31.1017C30.4882 27.5116 29.9909 27.0143 29.9909 26.4008C29.9909 25.7874 30.4882 25.29 31.1017 25.29H37.6309C38.2444 25.29 38.7417 25.7874 38.7417 26.4008C38.7417 27.0143 38.2444 27.5116 37.6309 27.5116H35.7445V34.7789C35.7445 35.54 35.1274 36.157 34.3663 36.157Z" fill="#9899A6"></path><path d="M28 2.09375V11.0281C28 13.7739 30.1868 15.9998 32.8845 15.9998H41.9393C41.7532 14.6996 41.1437 13.4875 40.1931 12.5586L31.1355 3.70833C30.2699 2.86258 29.1754 2.30427 28 2.09375Z" fill="#9899A6"></path></svg>